<?xml version="1.0" encoding="UTF-8"?>
<svg width="880px" height="890px" viewBox="0 0 880 890" version="1.1" xmlns="http://www.w3.org/2000/svg" xmlns:xlink="http://www.w3.org/1999/xlink">
    <!-- Generator: Sketch 55 (78076) - https://sketchapp.com -->
    <title>Camping</title>
    <desc>Created with Sketch.</desc>
    <g id="Camping" stroke="none" stroke-width="1" fill="none" fill-rule="evenodd">
        <g id="compass" transform="translate(75.000000, 145.000000)">
            <g id="Group-6-Copy" fill="#FFFFFF" opacity="0">
                <rect id="Rectangle-Copy-2" x="0" y="0" width="32" height="32"></rect>
            </g>
            <g id="Group-8" transform="translate(0.891479, 1.599243)" stroke="#404853" stroke-linecap="round" stroke-linejoin="round" stroke-width="2">
                <circle id="Stroke" cx="15.1085205" cy="14.4007568" r="13.2999998"></circle>
                <g id="Group-7">
                    <g id="Group-2" transform="translate(14.500000, 0.000000)">
                        <path d="M0.5,0 L0.5,2.5423584" id="Path-9"></path>
                        <path d="M0.5,26.2007567 L0.5,28.7431151" id="Path-9"></path>
                    </g>
                    <g id="Group-3" transform="translate(0.000000, 14.500000)">
                        <path d="M1.5,-1 L1.5,1.5423584" id="Path-9" transform="translate(1.500000, 0.500000) rotate(-270.000000) translate(-1.500000, -0.500000) "></path>
                        <path d="M28.4085203,-1 L28.4085203,1.5423584" id="Path-9" transform="translate(28.408520, 0.500000) rotate(-270.000000) translate(-28.408520, -0.500000) "></path>
                    </g>
                </g>
            </g>
            <g id="Group-10" transform="translate(15.891479, 16.000000) rotate(45.000000) translate(-15.891479, -16.000000) translate(12.391479, 9.000000)" stroke="#404853" stroke-linecap="round" stroke-linejoin="round" stroke-width="2">
                <g id="Group-9">
                    <path d="M0.5,7 L6.5,7" id="Path-10"></path>
                    <polyline id="Path-11" points="0.5 7 3.5 0 6.5 7"></polyline>
                </g>
                <g id="Group-9-Copy" transform="translate(3.500000, 9.993164) rotate(-180.000000) translate(-3.500000, -9.993164) translate(0.000000, 5.993164)">
                    <path d="M0.5,7 L6.5,7" id="Path-10"></path>
                    <polyline id="Path-11" points="0.5 7 3.5 0 6.5 7"></polyline>
                </g>
            </g>
        </g>
        <g id="Tree-1" transform="translate(219.000000, 145.000000)">
            <g id="Group-6-Copy-3" fill="#FFFFFF" opacity="0">
                <rect id="Rectangle-Copy-2" x="0" y="0" width="32" height="32"></rect>
            </g>
            <path d="M9.76930976,26.8103691 C4.9628733,26.725673 1.0926213,22.8029635 1.0926213,17.9763082 C1.0926213,14.1166108 3.56749586,10.8349514 7.01690034,9.63167445 C7.0408006,4.77240512 10.9873641,0.840599954 15.85225,0.840599954 C20.6845406,0.840599954 24.6107734,4.71989461 24.6865919,9.53412742 C28.2897923,10.6488361 30.9073787,14.0068871 30.9073787,17.9763082 C30.9073787,22.7560133 27.1120545,26.6492729 22.3706824,26.8068108 L22.3706824,26.811767 L9.76930976,26.811767 L9.76930976,26.8103691 Z" id="Combined-Shape" stroke="#404853" stroke-width="2" stroke-linecap="round" stroke-linejoin="round"></path>
            <g id="Group-14" transform="translate(10.000000, 14.579444)" stroke="#404853" stroke-linecap="round" stroke-linejoin="round" stroke-width="2">
                <path d="M6.37138634,15.199999 L6.37138634,0" id="Path-12"></path>
                <path d="M5.99999964,5.49365202 L0,0.693652302" id="Path-13"></path>
                <path d="M6.74277304,9.09081977 L11.9427727,4.29082006 L6.74277304,9.09081977 Z" id="Path-14"></path>
            </g>
        </g>
        <g id="flashlight-1" transform="translate(291.413238, 145.000000)">
            <rect id="Rectangle-Copy-2" fill="#FFFFFF" opacity="0" x="-1.42108547e-14" y="3.05533376e-12" width="32" height="32"></rect>
            <g id="Group-17" transform="translate(15.502057, 15.480629) rotate(45.000000) translate(-15.502057, -15.480629) translate(9.502057, -0.019371)" stroke="#404853" stroke-linecap="round" stroke-linejoin="round">
                <g id="Group-15" transform="translate(0.474074, 0.259091)">
                    <path d="M3.06195291,7.09264069 L7.84954609,7.09264069 C9.06457257,7.09264069 10.0495461,8.07761426 10.0495461,9.29264074 L10.0495461,11.94894 C10.0495461,14.4860238 7.99283333,16.5427366 5.4557495,16.5427366 L5.4557495,16.5427366 C2.91866567,16.5427366 0.861952862,14.4860238 0.861952862,11.94894 L0.861952862,9.29264074 C0.861952862,8.07761426 1.84692643,7.09264069 3.06195291,7.09264069 Z" id="Rectangle" stroke-width="2"></path>
                    <g id="Group-82" transform="translate(0.284032, 0.280129)" stroke-width="1.79999995">
                        <path d="M5.17171717,0.0136118031 L5.17171717,3.74593138" id="Path-56"></path>
                        <g id="Group-81" transform="translate(-0.000000, 1.108225)">
                            <path d="M1.47145192,0.879532812 L1.44479217,3.08059101" id="Path-56-Copy" transform="translate(1.458122, 1.980062) rotate(-30.000000) translate(-1.458122, -1.980062) "></path>
                            <path d="M8.69660264,1.18730765 L8.726919,3.37831943" id="Path-56-Copy-2" transform="translate(8.711761, 2.282814) rotate(40.000000) translate(-8.711761, -2.282814) "></path>
                        </g>
                    </g>
                    <path d="M8.30019401,16.0728394 L8.30019401,26.7934225 C8.30019401,28.4092499 7.02669282,29.7191369 5.4557495,29.7191369 C3.88480618,29.7191369 2.61130499,28.4092499 2.61130499,26.7934225 L2.61130499,15.4459326" id="Shape" stroke-width="2"></path>
                </g>
            </g>
            <path d="M10.7811343,18.3596419 L10.7811343,21.7729753" id="Path-16" stroke="#404853" stroke-width="2" stroke-linecap="round" stroke-linejoin="round" transform="translate(10.781134, 20.310118) rotate(45.000000) translate(-10.781134, -20.310118) "></path>
        </g>
        <g id="Fire-1" transform="translate(727.232930, 145.000000)">
            <g id="Group-37">
                <g id="Group-6-Copy-11" fill="#FFFFFF" opacity="0">
                    <rect id="Rectangle-Copy-2" x="0" y="0" width="32" height="32"></rect>
                </g>
                <g id="Group-35" transform="translate(5.200000, 2.100000)" stroke="#404853" stroke-linecap="round" stroke-linejoin="round" stroke-width="2">
                    <g id="Group-33">
                        <path d="M13.5431998,7.84079987 C12.3551998,5.46479991 11.0483998,3.56399994 9.62279984,2.13839996 C8.39976702,0.915367145 6.91442196,0.2169588 5.16676467,0.04317493 L5.16676732,0.0431482799 C4.65756721,-0.00748565498 4.18387282,0.309757023 4.03683364,0.799887644 L1.88905569,7.95914747 C0.770148734,11.6888373 2.25215995,15.7090062 5.52419991,17.8199997 L5.77335426,17.9807445 C8.96725187,20.0413236 13.0872365,19.9779054 16.2161997,17.8199997 L16.9296402,17.3279718 C19.5796291,15.5003933 20.7343328,12.162629 19.7801997,9.08819985 L18.5706141,5.19061109 C18.3955878,4.62663751 17.79651,4.31133343 17.2325364,4.48635971 C17.1535862,4.5108615 17.0777438,4.54443645 17.0065291,4.58641174 C16.2101842,5.05579195 15.6497411,5.42778801 15.3251997,5.70239991 C14.8598367,6.0961686 14.2658368,6.80896859 13.5431998,7.84079987 Z" id="Path-28"></path>
                        <path d="M7.68460244,11.9377046 L10.0993973,11.9377046 C12.0876223,11.9377046 13.6993972,13.5494795 13.6993972,15.5377045 L13.6993972,17.9524994 L11.2846023,17.9524994 C9.2963773,17.9524994 7.68460244,16.3407245 7.68460244,14.3524995 L7.68460244,11.9377046 Z" id="Rectangle" transform="translate(10.692000, 14.945102) rotate(-315.000000) translate(-10.692000, -14.945102) "></path>
                    </g>
                    <g id="Group-34" transform="translate(3.780000, 19.806741)">
                        <g id="Group-36" transform="translate(0.000000, 0.188711)">
                            <path d="M1.08000001,1.08000001 L12.6593192,5.53842735" id="Path-29" transform="translate(7.020000, 3.780000) rotate(-6.000000) translate(-7.020000, -3.780000) "></path>
                            <path d="M1.08000001,1.08000001 L12.6593192,5.53842735" id="Path-29-Copy" transform="translate(7.020000, 3.780000) scale(-1, 1) rotate(-6.000000) translate(-7.020000, -3.780000) "></path>
                        </g>
                    </g>
                </g>
            </g>
        </g>
        <g id="Barbeque" transform="translate(654.602014, 145.000000)">
            <g id="Group-6-Copy-10" fill="#FFFFFF" opacity="0">
                <rect id="Rectangle-Copy-2" x="0" y="0" width="32" height="32"></rect>
            </g>
            <g id="Group-32" transform="translate(2.516113, 2.055176)" stroke="#404853" stroke-linecap="round" stroke-linejoin="round" stroke-width="2">
                <path d="M0,7.20288086 L26.9677734,7.20288086 C26.9677734,14.6498259 20.9308317,20.6867676 13.4838867,20.6867676 C6.03694172,20.6867676 0,14.6498259 0,7.20288086 Z" id="Path"></path>
                <g id="Group-31" transform="translate(7.483887, 0.000000)">
                    <path d="M6,0 L6,3.5" id="Path-24"></path>
                    <g id="Group-30" transform="translate(0.000000, 2.287598)">
                        <path d="M0.5,0.25 L0.5,2" id="Path-24-Copy"></path>
                        <path d="M10.6269531,0.25 L10.6269531,2" id="Path-24-Copy-2"></path>
                    </g>
                </g>
                <path d="M10.7980957,13.9448242 L16.2802734,13.9448242" id="Path-25"></path>
                <path d="M4.65354965,26.2216112 L9.57399426,20.4323138" id="Path-26" transform="translate(7.073994, 23.432314) rotate(-19.000000) translate(-7.073994, -23.432314) "></path>
                <path d="M17.4538426,26.1090493 L22.3742872,20.3197519" id="Path-26-Copy" transform="translate(19.874287, 23.319752) scale(-1, 1) rotate(-19.000000) translate(-19.874287, -23.319752) "></path>
                <path d="M7.48388672,24.4613037 L19.8709757,24.4613037" id="Path-27"></path>
            </g>
        </g>
        <g id="camera" transform="translate(581.901762, 145.000000)">
            <g id="Group-6-Copy-9" fill="#FFFFFF" opacity="0">
                <rect id="Rectangle-Copy-2" x="0" y="0" width="32" height="32"></rect>
            </g>
            <g id="Group-29" transform="translate(2.500000, 4.019897)" stroke="#404853" stroke-linecap="round" stroke-linejoin="round" stroke-width="2">
                <path d="M7.16610718,3.33557129 L7.62126781,1.51492875 C7.84385131,0.624594747 8.64381753,0 9.56155281,0 L17.4384472,0 C18.3561825,0 19.1561487,0.624594747 19.3787322,1.51492875 L19.8338928,3.33557129 L25,3.33557129 C26.1045695,3.33557129 27,4.23100179 27,5.33557129 L27,19.4801025 C27,20.584672 26.1045695,21.4801025 25,21.4801025 L2,21.4801025 C0.8954305,21.4801025 0,20.584672 0,19.4801025 L0,5.33557129 C0,4.23100179 0.8954305,3.33557129 2,3.33557129 L7.16610718,3.33557129 Z" id="Path"></path>
                <g id="Group-26" transform="translate(0.000000, 5.680298)">
                    <circle id="Oval" cx="13.5" cy="6.29980469" r="6.29980469"></circle>
                    <path d="M7.20019531,6.29980469 L0,6.29980469" id="Path-22"></path>
                </g>
                <path d="M21.5,6.48010254 L23.5,6.48010254" id="Path-23"></path>
            </g>
        </g>
        <g id="map" transform="translate(509.201511, 145.000000)">
            <g id="Group-6-Copy-8" fill="#FFFFFF" opacity="0">
                <rect id="Rectangle-Copy-2" x="0" y="0" width="32" height="32"></rect>
            </g>
            <g id="Group-28" transform="translate(3.120000, 2.160000)" stroke="#404853" stroke-linecap="round" stroke-linejoin="round" stroke-width="2">
                <g id="Group-26-Copy">
                    <path d="M8.88182435,4.09860022 L23.1614613,4.09860022 C24.1776653,4.09860022 25.0014613,4.92239629 25.0014613,5.93860025 L25.0014613,24.8009014 C25.0014613,25.8171053 24.1776653,26.6409014 23.1614613,26.6409014 L3.6887402,26.6409014 C1.65150524,26.6409014 -1.52686751e-15,24.9893962 -1.77635684e-15,22.9521612 L-1.77635684e-15,4.09860022 L-1.77635684e-15,4.09860022" id="Path"></path>
                    <path d="M4.30353023,19.7258144 C2.082971,19.7258144 0.25521839,21.4076194 0.0245506305,23.5669513 L0,23.5669513 L0,4.30353023 C0,1.92675611 1.92675611,-1.38999288e-15 4.30353023,-1.38999288e-15 C6.68030434,-1.38999288e-15 8.60706046,1.92675611 8.60706046,4.30353023 L8.60706046,23.5669513 L8.58250983,23.5669513 C8.35184207,21.4076194 6.52408945,19.7258144 4.30353023,19.7258144 Z" id="Path"></path>
                </g>
                <g id="Group-27" transform="translate(9.380000, 4.840000)">
                    <path d="M1.42108547e-14,12 L15.5,18.0947266" id="Path-20"></path>
                    <path d="M5,14 L12,0" id="Path-21"></path>
                </g>
            </g>
        </g>
        <g id="BRANCH" transform="translate(363.128820, 142.000000)">
            <rect id="Rectangle-Copy-2" fill="#FFFFFF" opacity="0" x="1" y="3" width="32" height="32"></rect>
            <g id="Group-23" transform="translate(17.214399, 16.646415) rotate(53.000000) translate(-17.214399, -16.646415) translate(5.714399, 4.646415)" stroke="#404853" stroke-linecap="round" stroke-linejoin="round" stroke-width="2">
                <g id="Group-21" transform="translate(0.000000, 13.559842)">
                    <g id="Group-19">
                        <path d="M2.94736842,0 L19.6081414,0 L19.6081414,0 C21.2359281,0 22.5555099,2.07362853 22.5555099,4.63157895 C22.5555099,7.18952937 21.2359281,9.26315789 19.6081414,9.26315789 L2.94736842,9.26315789" id="Path"></path>
                        <ellipse id="Oval" cx="2.94736842" cy="4.63157895" rx="2.94736842" ry="4.63157895"></ellipse>
                    </g>
                    <path d="M5.79009046,5.98787007 L10.0006168,5.98787007" id="Path-17"></path>
                    <path d="M21.8947368,2.52631579 L16,2.52631579" id="Path-18"></path>
                    <path d="M2.98871301,6.4758227 L2.98871301,6.4758227 C3.36077851,6.4758227 3.66239718,5.72177601 3.66239718,4.79161227 C3.66239718,3.86144854 3.36077851,3.10740185 2.98871301,3.10740185" id="Path"></path>
                </g>
                <g id="Group-22" transform="translate(13.936543, 9.418581) rotate(-34.000000) translate(-13.936543, -9.418581) translate(7.436543, 3.418581)">
                    <path d="M0.842105263,0.842105263 L0.842105263,0.842105263 C4.59599285,0.842105263 7.63912001,3.88523242 7.63912001,7.63912001 L7.63912001,7.63912001 L7.63912001,7.63912001 C3.88523242,7.63912001 0.842105263,4.59599285 0.842105263,0.842105263 L0.842105263,0.842105263 Z" id="Rectangle" transform="translate(4.240613, 4.240613) rotate(10.000000) translate(-4.240613, -4.240613) "></path>
                    <path d="M7.09057317,3.26138686 L7.09057317,3.26138686 C10.0936831,3.26138686 12.5281846,5.69588844 12.5281846,8.69899833 L12.5281846,8.69899833 L12.5281846,8.69899833 C9.52507475,8.69899833 7.09057317,6.26449675 7.09057317,3.26138686 L7.09057317,3.26138686 Z" id="Rectangle-Copy-3" transform="translate(9.809379, 5.980193) rotate(88.000000) translate(-9.809379, -5.980193) "></path>
                    <path d="M7.33883293,11.2325418 C6.6901213,10.0932874 6.64646725,8.68155496 7.20787075,6.99734444" id="Path-19"></path>
                </g>
            </g>
        </g>
        <g id="bag" transform="translate(436.501259, 145.000000)">
            <g id="Group-6-Copy-6" fill="#FFFFFF" opacity="0">
                <rect id="Rectangle-Copy-2" x="0" y="0" width="32" height="32"></rect>
            </g>
            <g id="Group-25" transform="translate(2.500000, 2.500000)" stroke="#404853" stroke-linecap="round" stroke-linejoin="round" stroke-width="2">
                <path d="M1.80523682,4.11236572 L24.9312134,4.11236572 M24.9312134,14.6123657 L24.9312134,22.6123657 C24.9312134,24.8215047 23.1403524,26.6123657 20.9312134,26.6123657 L5.80523682,26.6123657 C3.59609782,26.6123657 1.80523682,24.8215047 1.80523682,22.6123657 L1.80523682,14.6123657" id="Shape"></path>
                <path d="M2,4.11236572 L25,4.11236572 C26.1045695,4.11236572 27,5.00779622 27,6.11236572 L27,9.86236572 C27,13.038003 24.4256373,15.6123657 21.25,15.6123657 L5.75,15.6123657 C2.57436269,15.6123657 3.88903407e-16,13.038003 0,9.86236572 L0,6.11236572 C-1.3527075e-16,5.00779622 0.8954305,4.11236572 2,4.11236572 Z" id="Rectangle"></path>
                <rect id="Rectangle" x="8.3682251" y="4.11236572" width="10" height="11.5"></rect>
                <rect id="Rectangle" transform="translate(13.368225, 21.211609) rotate(-315.000000) translate(-13.368225, -21.211609) " x="11.2924194" y="19.1358032" width="4.15161133" height="4.15161133"></rect>
                <path d="M17.4805908,4.11236572 C17.4805908,1.84116885 15.639422,0 13.3682251,0 C11.0970282,0 9.25585938,1.84116885 9.25585938,4.11236572" id="Path"></path>
            </g>
        </g>
        <g id="Hat-1" transform="translate(147.000000, 145.000000)">
            <g id="Group-11">
                <g id="Group-6-Copy-2" fill="#FFFFFF" opacity="0">
                    <rect id="Rectangle-Copy-2" x="0" y="0" width="32" height="32"></rect>
                </g>
                <path d="M8.20881587,16.8058799 C3.88637309,17.7791993 1,19.538011 1,21.5460815 C1,24.6090978 7.71572875,27.0921631 16,27.0921631 L16,27.0921631 C24.2842712,27.0921631 31,24.6090978 31,21.5460815 C31,19.5476258 28.1412009,17.7960476 23.8531734,16.8199148" id="Path" stroke="#404853" stroke-width="2" stroke-linecap="round" stroke-linejoin="round"></path>
                <path d="M8.36010742,15 C8.36010742,16.1045695 11.7110036,17 15.8445435,17 L15.8445435,17 C19.9780833,17 23.3289795,16.1045695 23.3289795,15" id="Path" stroke="#404853" stroke-width="2" stroke-linecap="round" stroke-linejoin="round"></path>
                <path d="M23.6398904,14.0406472 L23.6398926,16.0013428 L23.6398926,19.7003784 L23.6398926,19.7003784 C19.1078835,23.0818614 12.8921165,23.0818614 8.36010742,19.7003784 L8.36010742,19.7003784 L8.36010652,14.406781 C8.36010652,11.0980326 11.0386613,8.41379995 14.3474022,8.40679358 L14.3474022,8.40679358 C16.2479594,8.40276908 17.465492,8.40075684 18,8.40075684 C18,8.40075684 18,8.40075684 18,8.40075684 L18,8.40075684" id="Path" stroke="#404853" stroke-width="2" stroke-linecap="round" stroke-linejoin="round"></path>
                <path d="M27.0067141,4.8373164 L27.0067141,4.8373164 L27.0067141,4.8373164 C27.0067141,10.5363937 22.3866991,15.1564086 16.6876219,15.1564086 L16.6876219,15.1564086 L16.6876219,15.1564086 C16.6876219,9.45733135 21.3076368,4.8373164 27.0067141,4.8373164 Z" id="Rectangle" stroke="#404853" stroke-width="2" stroke-linecap="round" stroke-linejoin="round" transform="translate(21.847168, 9.996863) rotate(-17.000000) translate(-21.847168, -9.996863) "></path>
            </g>
        </g>
        <g id="Tent-3" transform="translate(654.602014, 289.114454)">
            <g id="Group-6-Copy-29" fill="#FFFFFF" opacity="0">
                <rect id="Rectangle-Copy-2" x="0" y="0" width="32" height="32"></rect>
            </g>
            <g id="Group-78" transform="translate(1.500000, 6.458252)" stroke="#404853" stroke-linecap="round" stroke-linejoin="round" stroke-width="2">
                <g id="Group-77">
                    <polygon id="Triangle" points="8.22924805 0.127685547 16.4584961 20.1276855 0 20.1276855"></polygon>
                    <polygon id="Rectangle" points="8.72924805 -4.79616347e-14 22.6481934 3 28.1481934 20.1276855 16.229248 20.1276855"></polygon>
                    <polygon id="Triangle" points="8.64819336 9 11.1784668 19.9871801 5.1784668 19.9871801"></polygon>
                    <path d="M16.6481934,7 L19.6481934,7" id="Path-51"></path>
                </g>
            </g>
        </g>
        <g id="Tent-4" transform="translate(727.232930, 289.114454)">
            <g id="Group-6-Copy-30" fill="#FFFFFF" opacity="0">
                <rect id="Rectangle-Copy-2" x="0" y="0" width="32" height="32"></rect>
            </g>
            <g id="Group-78-Copy" transform="translate(1.500000, 6.458252)" stroke="#404853" stroke-linecap="round" stroke-linejoin="round" stroke-width="2">
                <g id="Group-77">
                    <polygon id="Triangle" points="8.22924805 0.127685547 16.4584961 20.1276855 0 20.1276855"></polygon>
                    <polygon id="Rectangle" points="8.72924805 -5.68434189e-14 22.6481934 3 28.1481934 20.1276855 16.229248 20.1276855"></polygon>
                    <path d="M17.4387207,6.9309082 L19.229248,6.9309082" id="Path-51"></path>
                </g>
            </g>
            <path d="M9.92854498,7.56933594 L9.92854498,26.5693359" id="Path-52" stroke="#404853" stroke-width="2" stroke-linecap="round" stroke-linejoin="round"></path>
        </g>
        <g id="Tree-4" transform="translate(581.901762, 289.114454)">
            <g id="Group-6-Copy-28" fill="#FFFFFF" opacity="0">
                <rect id="Rectangle-Copy-2" x="0" y="0" width="32" height="32"></rect>
            </g>
            <path d="M16,30.5 L16,24.5256399" id="Path-50" stroke="#404853" stroke-width="2" stroke-linecap="round" stroke-linejoin="round"></path>
            <polygon id="Path" stroke="#404853" stroke-width="2" stroke-linecap="round" stroke-linejoin="round" points="10.2228859 19.8676758 7.75 19.8676758 11.875 11.9002733 10.5 11.9002733 16 1.27706989 21.5 11.9002733 20.125 11.9002733 24.25 19.8676758 21.7771141 19.8676758 25.9000004 27.8309957 6.09999961 27.8309957"></polygon>
        </g>
        <g id="Map-2" transform="translate(365.780499, 289.114454)">
            <g id="Group-6-Copy-25" fill="#FFFFFF" opacity="0">
                <rect id="Rectangle-Copy-2" x="0" y="0" width="32" height="32"></rect>
            </g>
            <g id="Group-72" transform="translate(3.500000, 2.500000)" stroke="#404853" stroke-linecap="round" stroke-linejoin="round" stroke-width="2">
                <g id="Group-73" transform="translate(0.721972, 0.939843)">
                    <polygon id="Rectangle" points="0 1.17621193e-14 7.70000017 3.30000007 7.70000017 25.3000005 0 22.0000005"></polygon>
                    <polygon id="Rectangle-Copy-5" points="7.70000017 3.30000007 15.4000003 1.17621193e-14 15.4000003 22.0000005 7.70000017 25.3000005"></polygon>
                    <polygon id="Rectangle-Copy-6" points="15.4000003 1.17621193e-14 23.1000005 3.30000007 23.1000005 25.3000005 15.4000003 22.0000005"></polygon>
                    <path d="M0.471399491,16.7772036 L2.53794716,14.7106559 C3.82667735,13.4219257 5.91612182,13.4219257 7.20485202,14.7106559 L8.72139967,16.2272036 C10.1453649,17.6511687 12.4540686,17.6511687 13.8780338,16.2272036 C14.2148078,15.8904295 14.4823428,15.4909404 14.6655237,15.0513061 L16.3504519,11.0074786 C16.8177697,9.88591568 18.1058121,9.35554529 19.227375,9.82286317 C19.6760585,10.0098146 20.050196,10.3400965 20.2913561,10.7621268 L22.4714,14.5772035" id="Path-49"></path>
                </g>
            </g>
        </g>
        <g id="Coffee-2" transform="translate(292.815616, 289.114454)">
            <g id="Group-6-Copy-24" fill="#FFFFFF" opacity="0">
                <rect id="Rectangle-Copy-2" x="0" y="0" width="32" height="32"></rect>
            </g>
            <g id="Group-39-Copy-2" transform="translate(2.001221, 1.779591)" stroke="#404853" stroke-linecap="round" stroke-linejoin="round" stroke-width="2">
                <g id="Group-71">
                    <path d="M0,10 L23.1933594,10 L23.1933594,19.0219727 C23.1933594,23.4402507 19.6116374,27.0219727 15.1933594,27.0219727 L8,27.0219727 C3.581722,27.0219727 5.41083001e-16,23.4402507 0,19.0219727 L0,10 Z" id="Rectangle"></path>
                    <path d="M23.9118652,20.7353516 C26.3487408,20.7353516 28.3242188,18.7598736 28.3242188,16.322998 C28.3242188,13.8861225 26.3487408,11.9106445 23.9118652,11.9106445" id="Path"></path>
                    <g id="Group-70" transform="translate(5.596680, 0.846436)">
                        <path d="M5.6809082,4.78222656 L5.6809082,0" id="Path-47"></path>
                        <g id="Group-69" transform="translate(0.000000, 3.282227)">
                            <path d="M0.5,2.78222656 L0.5,0.0744628906" id="Path-47-Copy"></path>
                            <path d="M10.8618164,2.78222656 L10.8618164,0.0744628906" id="Path-47-Copy-2"></path>
                        </g>
                    </g>
                </g>
            </g>
        </g>
        <g id="Tent-1" transform="translate(75.027344, 217.057227)">
            <g id="Group-6-Copy-12" fill="#FFFFFF" opacity="0">
                <rect id="Rectangle-Copy-2" x="0" y="0" width="32" height="32"></rect>
            </g>
            <g id="Group-39-Copy" transform="translate(2.579533, 2.346436)" stroke="#404853" stroke-linecap="round" stroke-linejoin="round" stroke-width="2">
                <g id="Group-38" transform="translate(7.246606, 13.650000)">
                    <path d="M1.39999998,0.349999994 L11.8999998,0.349999994" id="Path-33"></path>
                    <path d="M0,10.85 L6.29999989,0.349999994 C10.0333332,7.34999987 11.8999998,10.8499998 11.8999998,10.8499998" id="Path-34"></path>
                </g>
                <path d="M0,24.630566 C18.1999997,24.630566 27.2999995,24.630566 27.2999995,24.630566" id="Path-30"></path>
                <path d="M10.7466063,0 L25.446606,24.4999996" id="Path-31"></path>
                <path d="M12.6499998,5.11489236 L1.64660642,24.4999996" id="Path-32"></path>
            </g>
        </g>
        <g id="teapot" transform="translate(364.128820, 217.710059)">
            <g id="Group-65">
                <g id="Group-6-Copy-21" fill="#FFFFFF" opacity="0">
                    <rect id="Rectangle-Copy-2" x="0" y="0" width="32" height="32"></rect>
                </g>
                <g id="Group-64" transform="translate(1.461468, 2.650635)" stroke="#404853" stroke-linecap="round" stroke-linejoin="round" stroke-width="2">
                    <g id="Group-63" transform="translate(3.354450, 0.000000)">
                        <path d="M16.7773438,8.69946289 L16.7773437,8.69946289 C20.2328941,11.2125904 22.2773437,15.2274194 22.2773437,19.5001981 L22.2773437,20.1994629 C22.2773437,24.2956449 18.9567321,27.6162566 14.8605501,27.6162566 C14.8329696,27.6162566 14.8053893,27.6161027 14.7778105,27.615795 L7.37657685,27.5332238 C3.33362467,27.488119 0.0927290503,24.174094 0.137833878,20.1311418 C0.138041943,20.112492 0.138321278,20.093843 0.138671875,20.0751953 L0.149505046,19.4989965 C0.230024747,15.216284 2.31314753,11.2188783 5.77734375,8.69946289 L5.77734375,8.69946289 C9.05628054,6.31478159 13.498407,6.31478159 16.7773438,8.69946289 Z" id="Triangle"></path>
                        <circle id="Oval" cx="11.1386719" cy="3.42431641" r="3.42431641"></circle>
                    </g>
                    <path d="M5.63862982,12.2971191 C4.30529648,10.9637858 2.97196315,10.6304525 1.63862982,11.2971191 C-0.361370184,12.2971191 -1.36137018,19.2971191 3.63862982,21.2971191" id="Path-46"></path>
                    <path d="M7.48549735,10.3496463 C12.2931386,11.1868923 17.1007798,11.1680858 21.908421,10.293227" id="Path"></path>
                    <polyline id="Path-48" points="24.6386298 13.2971191 25.6335029 12.3493652 29.6335029 12.3493652 25.6335029 19.3493652"></polyline>
                </g>
            </g>
        </g>
        <g id="Knife" transform="translate(727.232930, 217.710059)">
            <g id="Group-62">
                <g id="Group-6-Copy-20" fill="#FFFFFF" opacity="0">
                    <rect id="Rectangle-Copy-2" x="0" y="0" width="32" height="32"></rect>
                </g>
                <g id="Group-61" transform="translate(1.464051, 1.154968)" stroke="#404853" stroke-linecap="round" stroke-linejoin="round" stroke-width="2">
                    <rect id="Rectangle" x="8.7894849" y="0" width="11.4929281" height="29.6900642" rx="5.74646405"></rect>
                    <g id="Group-60" transform="translate(14.035949, 5.345032)">
                        <path d="M0.5,0 L0.5,2" id="Path-45"></path>
                        <path d="M0.5,17 L0.5,19" id="Path-45"></path>
                    </g>
                    <path d="M17.1321055,5.79138339 L27.7317252,5.47978458 C27.7317252,8.75610538 25.4808543,11.5067071 22.4411303,12.269572" id="Shape" transform="translate(22.431915, 8.979785) rotate(34.000000) translate(-22.431915, -8.979785) "></path>
                    <path d="M2,17.4269597 L11.6069001,17.4269597 C11.6069001,20.5789875 9.52357126,23.2444278 6.65877127,24.1214229" id="Path" transform="translate(6.803450, 20.774191) scale(-1, -1) rotate(34.000000) translate(-6.803450, -20.774191) "></path>
                </g>
            </g>
        </g>
        <g id="SpayGlass" transform="translate(654.602014, 217.710059)">
            <g id="Group-59">
                <g id="Group-6-Copy-19" fill="#FFFFFF" opacity="0">
                    <rect id="Rectangle-Copy-2" x="0" y="0" width="32" height="32"></rect>
                </g>
                <g id="Group-57" transform="translate(1.552246, 3.506348)" stroke="#404853" stroke-linecap="round" stroke-linejoin="round" stroke-width="2">
                    <g id="Group-58" transform="translate(0.367432, 0.952148)">
                        <circle id="Oval" cx="5.73449707" cy="18.4521484" r="5.73449707"></circle>
                        <path d="M0.0041383354,19.1948514 L0.904138312,4.51334402 C1.01253602,2.41270733 3.13342673,0.735839844 5.73449707,0.735839844 L5.73449707,0.735839844 C8.33556741,0.735839844 10.4564581,2.41270733 10.5608304,4.51334402 L11.4648558,19.1948514" id="Path"></path>
                        <circle id="Oval" transform="translate(22.577026, 18.452148) scale(-1, 1) translate(-22.577026, -18.452148) " cx="22.5770264" cy="18.4521484" r="5.73449707"></circle>
                        <path d="M16.8466676,19.1948514 L17.7466676,4.51334402 C17.8550653,2.41270733 19.975956,0.735839844 22.5770264,0.735839844 L22.5770264,0.735839844 C25.1780967,0.735839844 27.2989874,2.41270733 27.4033597,4.51334402 L28.3073851,19.1948514" id="Path" transform="translate(22.577026, 9.965346) scale(-1, 1) translate(-22.577026, -9.965346) "></path>
                        <path d="M16.5469971,19.0358887 L11.5469971,19.0358887" id="Path-4" transform="translate(14.046997, 19.035889) scale(-1, 1) translate(-14.046997, -19.035889) "></path>
                        <path d="M11.3674316,5.45214844 C15.3674316,5.45214844 17.3674316,5.45214844 17.3674316,5.45214844" id="Path-44"></path>
                        <path d="M11.3674316,10.0493164 C15.3674316,10.0493164 17.0340983,10.0493164 16.3674316,10.0493164" id="Path-44-Copy"></path>
                    </g>
                </g>
            </g>
        </g>
        <g id="Boots" transform="translate(581.901762, 217.710059)">
            <g id="Group-56">
                <g id="Group-6-Copy-18" fill="#FFFFFF" opacity="0">
                    <rect id="Rectangle-Copy-2" x="0" y="0" width="32" height="32"></rect>
                </g>
                <g id="Group-55" transform="translate(3.710449, 2.193359)" stroke="#404853" stroke-linecap="round" stroke-linejoin="round" stroke-width="2">
                    <polygon id="Rectangle" points="0.150390625 21.4223633 24.3259277 21.4223633 24.3259277 26.2741699 9 26.2741699 7 24.2741699 5 26.2741699 0.150390625 26.2741699"></polygon>
                    <path d="M0,21 L0,2 C-1.3527075e-16,0.8954305 0.8954305,2.02906125e-16 2,0 L11.2841621,8.8817842e-16 C12.2713042,7.06843346e-16 13.1108034,0.720222257 13.2609055,1.69588563 L14.3157427,8.55232736 C14.7094041,11.1111269 16.9110959,13 19.5,13 L19.5,13 C21.9852814,13 24,15.0147186 24,17.5 L24,21" id="Path-41"></path>
                    <path d="M0,5 L13,5" id="Path-42"></path>
                    <circle id="Oval" cx="10.3809204" cy="15.0718384" r="2.61907959"></circle>
                    <path d="M15,11 L13,13" id="Path-43"></path>
                </g>
            </g>
        </g>
        <g id="Axe" transform="translate(509.216840, 217.710059)">
            <g id="Group-54">
                <g id="Group-6-Copy-17" fill="#FFFFFF" opacity="0">
                    <rect id="Rectangle-Copy-2" x="0" y="0" width="32" height="32"></rect>
                </g>
                <g id="Group-53" transform="translate(16.177923, 16.144266) rotate(25.000000) translate(-16.177923, -16.144266) translate(6.177923, 3.644266)" stroke="#404853" stroke-linecap="round" stroke-linejoin="round" stroke-width="2">
                    <path d="M5.5990778,13.7091772 L5.44201233,17.1646177 C5.37038742,18.7403657 5.63639986,20.3132219 6.22222222,21.7777778 L6.25566929,21.8613955 C6.62031535,22.7730106 6.1769093,23.8076247 5.26529416,24.1722708 C5.12416454,24.2287226 4.97637773,24.2668417 4.82555026,24.2856951 L1.99828397,24.6391034 C1.0240263,24.7608856 0.135510428,24.0698177 0.0137282192,23.09556 C0.0045849244,23.0224137 -5.68434189e-14,22.9487694 -5.68434189e-14,22.8750538 L-5.68434189e-14,3.11111111 C-5.68434189e-14,1.39289189 1.39289189,0 3.11111111,0 L3.11111111,0 L3.11111111,0 C4.75300356,0 6.08402038,1.33101682 6.08402038,2.97290927 C6.08402038,3.0179243 6.08299797,3.06293353 6.08095394,3.10790213 L5.99779675,4.9373604" id="Path"></path>
                    <g id="Group-52" transform="translate(0.000000, 4.154514)">
                        <path d="M-3.55271368e-14,0.888888889 L17.7777778,0 C18.9516782,2.14467593 19.5386285,3.76374421 19.5386285,4.85720486 C19.5386285,5.95066551 18.9516782,7.59085648 17.7777778,9.77777778 L-3.55271368e-14,8.88888889 L-3.55271368e-14,0.888888889 Z" id="Rectangle"></path>
                        <path d="M14.4433594,0.444444444 C15.4698351,2.39158951 15.9830729,3.86250965 15.9830729,4.85720486 C15.9830729,5.85190008 15.4698351,7.3439429 14.4433594,9.33333333" id="Path-40"></path>
                    </g>
                </g>
            </g>
        </g>
        <g id="Radio" transform="translate(436.501259, 217.710059)">
            <g id="Group-51">
                <g id="Group-6-Copy-16" fill="#FFFFFF" opacity="0">
                    <rect id="Rectangle-Copy-2" x="0" y="0" width="32" height="32"></rect>
                </g>
                <g id="Group-50" transform="translate(3.296387, 2.500000)" stroke="#404853" stroke-linecap="round" stroke-linejoin="round" stroke-width="2">
                    <rect id="Rectangle" x="0" y="5.0390625" width="25.4072266" height="19.2094727"></rect>
                    <g id="Group-49" transform="translate(3.203613, 9.143799)">
                        <circle id="Oval" cx="13.0248413" cy="5.42901611" r="5.42901611"></circle>
                        <g id="Group-48" transform="translate(0.000000, 2.429016)">
                            <path d="M0,0.5 L4,0.5" id="Path-39"></path>
                            <path d="M0,5.5 L4,5.5" id="Path-39"></path>
                        </g>
                    </g>
                    <path d="M1.70361328,5 L18.7036133,0" id="Path-37"></path>
                    <path d="M2.10778809,26.5026855 L4.10778809,24.5026855" id="Path-38"></path>
                    <path d="M21.5616455,26.2485352 L23.5616455,24.2485352" id="Path-38-Copy" transform="translate(22.561646, 25.248535) scale(-1, 1) translate(-22.561646, -25.248535) "></path>
                </g>
            </g>
        </g>
        <g id="signpost" transform="translate(291.413238, 217.710059)">
            <g id="Group-47">
                <g id="Group-6-Copy-15" fill="#FFFFFF" opacity="0">
                    <rect id="Rectangle-Copy-2" x="0" y="0" width="32" height="32"></rect>
                </g>
                <g id="Group-46" transform="translate(3.428223, 2.500000)" stroke="#404853" stroke-linecap="round" stroke-linejoin="round" stroke-width="2">
                    <path d="M12.5717773,27 L12.5717773,20.0920003 M12.5717773,12.1971436 L12.5717773,9.23657227 M12.5717773,2 L12.5717773,0" id="Shape"></path>
                    <path d="M10.2280273,2.13867188 L20.8777977,2.13867188 L25.3344727,6.13867187 L20.8777977,9.13867187 L10.2280273,9.13867188 C8.29503072,9.13867188 6.72802734,7.5716685 6.72802734,5.63867188 L6.72802734,5.63867188 C6.72802734,3.70567525 8.29503072,2.13867188 10.2280273,2.13867188 Z" id="Rectangle"></path>
                    <path d="M3.5,12.215332 L14.1497703,12.215332 L18.6064453,16.215332 L14.1497703,19.215332 L3.5,19.215332 C1.56700338,19.215332 2.36723813e-16,17.6483287 0,15.715332 L0,15.715332 C-2.36723813e-16,13.7823354 1.56700338,12.215332 3.5,12.215332 Z" id="Rectangle-Copy-4" transform="translate(9.303223, 15.715332) scale(-1, 1) translate(-9.303223, -15.715332) "></path>
                    <path d="M16.8419189,5.63867188 L19.8419189,5.63867188" id="Path-36"></path>
                    <path d="M6.30322266,15.715332 L9.30322266,15.715332" id="Path-36-Copy"></path>
                </g>
            </g>
        </g>
        <g id="Guitar" transform="translate(219.000000, 217.057227)">
            <g id="Group-45">
                <g id="Group-6-Copy-14" transform="translate(0.864865, 0.196866)" fill="#FFFFFF" opacity="0">
                    <rect id="Rectangle-Copy-2" x="0" y="0" width="32" height="32"></rect>
                </g>
                <g id="Group-44" transform="translate(17.662333, 16.196866) rotate(48.000000) translate(-17.662333, -16.196866) translate(10.310982, 2.359028)" stroke="#404853" stroke-linecap="round" stroke-linejoin="round" stroke-width="2">
                    <g id="Group-43" transform="translate(4.497958, -0.000000)">
                        <path d="M1.72972973,24.7746194 L3.45945946,24.7746194" id="Path-3"></path>
                        <g id="Group-42" transform="translate(0.000000, -0.000000)">
                            <path d="M2.23664702,0.178707555 L2.45860646,0.178707555 C3.34226201,0.178707555 4.05860637,0.895051913 4.05860637,1.77870746 L4.05860637,3.38445061 C4.05860637,4.26810615 3.34226201,4.98445051 2.45860646,4.98445051 L2.23664702,4.98445051 C1.35299147,4.98445051 0.636647111,4.26810615 0.636647111,3.38445061 L0.636647111,1.77870746 C0.636647111,0.895051913 1.35299147,0.178707555 2.23664702,0.178707555 Z" id="Rectangle"></path>
                            <path d="M2.69592481,5.01694654 L2.34762674,16.6054047" id="Path-35"></path>
                            <circle id="Oval" cx="2.34762674" cy="18.9530315" r="2.34762674"></circle>
                        </g>
                    </g>
                    <path d="M1.84893503,15.6336425 C1.8340362,15.47224 1.82642092,15.308727 1.82642092,15.1434355 C1.82642092,12.2350313 4.18414832,9.87730395 7.09255246,9.87730395 C10.0009566,9.87730395 12.358684,12.2350313 12.358684,15.1434355 C12.358684,15.308727 12.3510687,15.47224 12.3361699,15.6336425 C13.4847671,16.8939923 14.1851049,18.5699933 14.1851049,20.409567 C14.1851049,24.3266756 11.009661,27.5021195 7.09255246,27.5021195 C3.1754439,27.5021195 -8.52651283e-14,24.3266756 -8.52651283e-14,20.409567 C-8.52651283e-14,18.5699933 0.700337868,16.8939923 1.84893503,15.6336425 Z" id="Combined-Shape"></path>
                </g>
            </g>
        </g>
        <g id="Tea" transform="translate(147.727596, 217.057227)">
            <g id="Group-41">
                <g id="Group-6-Copy-13" fill="#FFFFFF" opacity="0">
                    <rect id="Rectangle-Copy-2" x="0" y="0" width="32" height="32"></rect>
                </g>
                <g id="Group-39" transform="translate(2.292969, 4.441895)" stroke="#404853" stroke-linecap="round" stroke-linejoin="round" stroke-width="2">
                    <path d="M0,7 L23.1933594,7 L23.1933594,16.0219727 C23.1933594,20.4402507 19.6116374,24.0219727 15.1933594,24.0219727 L8,24.0219727 C3.581722,24.0219727 5.41083001e-16,20.4402507 0,16.0219727 L0,7 Z" id="Rectangle"></path>
                    <polygon id="Rectangle" points="2.32932134 11.9627929 5.12932129 10.5737305 8.17165522 11.9627929 8.17165522 17.1051268 2.32932134 17.1051268"></polygon>
                    <path d="M23.9118652,17.7353516 C26.3487408,17.7353516 28.3242188,15.7598736 28.3242188,13.322998 C28.3242188,10.8861225 26.3487408,8.91064453 23.9118652,8.91064453" id="Path"></path>
                    <path d="M5.25048828,10.5737305 L5.25048828,4.57373047 C5.25048828,2.36459147 7.04134928,0.573730469 9.25048828,0.573730469 L9.25048828,0.573730469 C11.4596273,0.573730469 13.2504883,2.36459147 13.2504883,4.57373047 L13.2504883,6.57373047" id="Path-2"></path>
                </g>
            </g>
        </g>
        <g id="Tent-2" transform="translate(220.443177, 289.114454)">
            <g id="Group-79">
                <g id="Group-6-Copy-23" fill="#FFFFFF" opacity="0">
                    <rect id="Rectangle-Copy-2" x="0" y="0" width="32" height="32"></rect>
                </g>
                <g id="Group-40" transform="translate(2.000000, 2.319092)" stroke="#404853" stroke-linecap="round" stroke-linejoin="round" stroke-width="2">
                    <g id="Group-38" transform="translate(9.246606, 9.650000)">
                        <path d="M1.32021479,14.0213866 L4.47021474,8.77138667 C6.33688137,12.2713866 7.27021469,14.0213866 7.27021469,14.0213866" id="Path-34"></path>
                        <path d="M0.253393678,0.991601795 L7.27021469,0.991601795" id="Path-5"></path>
                    </g>
                    <path d="M0,24.630566 C18.1999997,24.630566 27.2999995,24.630566 27.2999995,24.630566" id="Path-30"></path>
                    <path d="M10.7466063,-1.77635684e-15 L25.446606,24.4999996" id="Path-31"></path>
                    <path d="M12.6499998,5.11489236 L1.64660642,24.4999996" id="Path-32"></path>
                </g>
            </g>
        </g>
        <g id="Mpountain-1" transform="translate(75.000000, 289.114454)">
            <g id="Group-68">
                <g id="Group-6-Copy-22" fill="#FFFFFF" opacity="0">
                    <rect id="Rectangle-Copy-2" x="0" y="0" width="32" height="32"></rect>
                </g>
                <g id="Group-67" transform="translate(1.500000, 6.000000)" stroke="#404853" stroke-linecap="round" stroke-linejoin="round" stroke-width="2">
                    <polygon id="Triangle" points="20.6831055 0 28.6831055 20 12.6831055 20"></polygon>
                    <polyline id="Path" points="12.9719238 20 -2.27373675e-13 20 8 7 13.9123609 16.6075864"></polyline>
                    <path d="M23.5,7.4816018 L18.5,7.4816018" id="Path-7"></path>
                    <path d="M10.5,12.4816018 L5.5,12.4816018" id="Path-8"></path>
                </g>
            </g>
        </g>
        <g id="Mountain-2" transform="translate(147.727596, 289.114454)">
            <g id="Group-68-Copy">
                <g id="Group-6-Copy-22" fill="#FFFFFF" opacity="0">
                    <rect id="Rectangle-Copy-2" x="0" y="0" width="32" height="32"></rect>
                </g>
                <g id="Group-67" transform="translate(1.500000, 4.000000)" stroke="#404853" stroke-linecap="round" stroke-linejoin="round" stroke-width="2">
                    <g id="Group-66" transform="translate(0.387207, 7.111816)">
                        <polygon id="Triangle" points="19.6743164 0 27.6743164 15.3473245 11.6743164 15.3473245"></polygon>
                        <polyline id="Path" points="12.112793 15.3473245 -1.95399252e-14 15.3473245 8.11279297 4.3697854 8.11279297 4.3697854 13.4750364 11.8330403"></polyline>
                    </g>
                    <circle id="Oval" cx="12.2734375" cy="4.06750122" r="3.95618043"></circle>
                </g>
            </g>
        </g>
        <g id="Group-13" transform="translate(75.527344, 360.677148)">
            <rect id="Rectangle-Copy-2" fill="#FFFFFF" opacity="0" x="0" y="1" width="32" height="32"></rect>
            <g id="Group-12" transform="translate(16.590863, 16.533840) rotate(39.000000) translate(-16.590863, -16.533840) translate(9.590863, 3.533840)">
                <path d="M7.31725494,1.13686838e-13 L7.31725494,3.409933" id="Path-56" stroke="#404853" stroke-width="2" stroke-linecap="round" stroke-linejoin="round"></path>
                <path d="M3.92874113,1.76946419 L3.92874113,3.79446408" id="Path-56-Copy" stroke="#404853" stroke-width="2" stroke-linecap="round" stroke-linejoin="round" transform="translate(3.928741, 2.984464) rotate(-30.000000) translate(-3.928741, -2.984464) "></path>
                <path d="M10.5137633,2.0258189 L10.5137633,4.05081879" id="Path-56-Copy-2" stroke="#404853" stroke-width="2" stroke-linecap="round" stroke-linejoin="round" transform="translate(10.513763, 3.240819) rotate(40.000000) translate(-10.513763, -3.240819) "></path>
                <g id="Group-80" transform="translate(7.068957, 16.043999) rotate(2.000000) translate(-7.068957, -16.043999) translate(0.588958, 6.323999)">
                    <g id="Group-76" transform="translate(-0.000000, 0.000000)"></g>
                </g>
                <path d="M2.91725309,6.35329177 L10.5667687,6.35329177 C11.7746154,6.35329177 12.7537687,7.332445 12.7537687,8.54029174 L12.7537687,9.68772469 C12.7537687,10.5200441 12.2813241,11.2802147 11.5350211,11.6487082 L10.3870108,12.215548 L8.92675628,23.8883838 C8.82534823,24.6990092 8.13622947,25.3072915 7.3192857,25.3072915 L5.82522232,25.3072915 C4.99975263,25.3072915 4.30628863,24.6866116 4.21513075,23.8661907 L3.04610781,13.3449842 C2.9655771,12.6202078 2.52909439,11.9832521 1.8822379,11.6465582 L1.8237531,11.6161164 C1.15177941,11.2663488 0.730253118,10.5717315 0.730253118,9.81417888 L0.730253118,8.54029174 C0.730253118,7.332445 1.70940636,6.35329177 2.91725309,6.35329177 Z" id="Rectangle" stroke="#404853" stroke-width="2" stroke-linecap="round" stroke-linejoin="round" transform="translate(6.742011, 15.830292) rotate(2.000000) translate(-6.742011, -15.830292) "></path>
                <path d="M6.35852441,13.3464276 L6.35852441,15.1689276" id="Path-53" stroke="#404853" stroke-width="2" stroke-linecap="round" stroke-linejoin="round" transform="translate(6.358524, 14.439928) rotate(2.000000) translate(-6.358524, -14.439928) "></path>
                <path d="M8.76547526,22.3254538 L4.39147531,22.3254538" id="Path-54" stroke="#404853" stroke-width="2" stroke-linecap="round" stroke-linejoin="round" transform="translate(6.578475, 22.325454) rotate(2.000000) translate(-6.578475, -22.325454) "></path>
                <path d="M1.23695725,8.89165251 L12.9009571,8.89165251" id="Path-55" stroke="#404853" stroke-width="2" stroke-linecap="round" stroke-linejoin="round" transform="translate(7.068957, 8.891653) rotate(2.000000) translate(-7.068957, -8.891653) "></path>
            </g>
            <g id="Group-81" transform="translate(24.426617, 6.283753) rotate(39.000000) translate(-24.426617, -6.283753) translate(18.426617, 3.783753)"></g>
        </g>
        <g id="flashlight-3" transform="translate(147.727596, 361.677148)">
            <g id="Group-6-Copy-32" fill="#FFFFFF" opacity="0">
                <rect id="Rectangle-Copy-2" x="0" y="0" width="32" height="32"></rect>
            </g>
            <g id="Group-152" transform="translate(1.538916, 1.381779)" stroke="#404853" stroke-linecap="round" stroke-linejoin="round">
                <g id="Group-83" transform="translate(12.012302, 16.864568) rotate(44.000000) translate(-12.012302, -16.864568) translate(7.012302, 5.364568)">
                    <path d="M1.79999995,0 L8.09999979,0 C9.09411231,-1.82615508e-16 9.89999974,0.805887429 9.89999974,1.79999995 L9.89999974,5.39999986 L0,5.39999986 L0,1.79999995 C-1.21743672e-16,0.805887429 0.805887429,-3.9429097e-17 1.79999995,-2.22044605e-16 Z" id="Rectangle" stroke-width="2"></path>
                    <path d="M0.899999976,5.39999986 L8.99999976,5.39999986 L7.6499998,8.09999979 L7.6499998,20.6999995 C7.6499998,21.694112 6.84411237,22.4999994 5.84999985,22.4999994 L4.04999989,22.4999994 C3.05588737,22.4999994 2.24999994,21.694112 2.24999994,20.6999995 L2.24999994,8.09999979 L0.899999976,5.39999986 Z" id="Rectangle" stroke-width="2"></path>
                    <path d="M7.19999981,19.7999995 L2.69999993,19.7999995" id="Path-57" stroke-width="2"></path>
                    <path d="M4.94999987,8.97824683 L4.94999987,10.1669629" id="Path-58" stroke-width="1.79999995"></path>
                </g>
                <g id="Group-82" transform="translate(22.893140, 5.989099) rotate(39.000000) translate(-22.893140, -5.989099) translate(17.393140, 2.989099)" stroke-width="2">
                    <path d="M5.39999986,0.0138178408 L5.39999986,3.80263239" id="Path-56"></path>
                    <g id="Group-81" transform="translate(-0.000000, 1.125000)">
                        <path d="M1.63498442,0.854889246 L1.63498442,3.10488919" id="Path-56-Copy" transform="translate(1.634984, 2.204889) rotate(-30.000000) translate(-1.634984, -2.204889) "></path>
                        <path d="M8.95167594,1.13972782 L8.95167594,3.38972776" id="Path-56-Copy-2" transform="translate(8.951676, 2.489728) rotate(40.000000) translate(-8.951676, -2.489728) "></path>
                    </g>
                </g>
            </g>
        </g>
        <g id="Fire-2" transform="translate(220.443177, 361.867188)">
            <g id="Group-6-Copy-32" fill="#FFFFFF" opacity="0">
                <rect id="Rectangle-Copy-2" x="0" y="0" width="32" height="32"></rect>
            </g>
            <g id="Group" transform="translate(4.500000, 2.106934)" stroke="#404853" stroke-linecap="round" stroke-linejoin="round" stroke-width="2">
                <rect id="Rectangle" x="6" y="0" width="11" height="4"></rect>
                <path d="M4,4 L19,4 L19,15.5878326 C19,18.3492564 16.7614237,20.5878326 14,20.5878326 L9,20.5878326 C6.23857625,20.5878326 4,18.3492564 4,15.5878326 L4,4 Z" id="Rectangle"></path>
                <path d="M8.15844727,11.093345 L10.8415527,11.093345 C13.0506917,11.093345 14.8415527,12.884206 14.8415527,15.093345 L14.8415527,17.7764504 L12.1584473,17.7764504 C9.94930827,17.7764504 8.15844727,15.9855894 8.15844727,13.7764504 L8.15844727,11.093345 Z" id="Rectangle" transform="translate(11.500000, 14.434898) rotate(-315.000000) translate(-11.500000, -14.434898) "></path>
                <path d="M0,3.6875 L23,3.6875" id="Path-59"></path>
                <path d="M10.4472613,20.5878326 L12.5527387,20.5878326 C16.8616245,20.5878326 20.3546666,24.0808747 20.3546666,28.3897605 L20.3546666,28.3897605 L2.64533339,28.3897605 L2.64533339,28.3897605 C2.64533339,24.0808747 6.1383755,20.5878326 10.4472613,20.5878326 Z" id="Rectangle"></path>
                <circle id="Oval" cx="11.4005036" cy="22.9787018" r="2.39086914"></circle>
            </g>
        </g>
        <g id="Lighting-1" transform="translate(292.815616, 361.867188)">
            <g id="Group-6-Copy-33" fill="#FFFFFF" opacity="0">
                <rect id="Rectangle-Copy-2" x="0" y="0" width="32" height="32"></rect>
            </g>
            <g id="Group-4" transform="translate(6.678955, 2.000000)" stroke="#404853" stroke-linecap="round" stroke-linejoin="round" stroke-width="2">
                <path d="M0,13.3869629 L16,13.3869629 L16,22.3869629 C16,25.1483866 13.7614237,27.3869629 11,27.3869629 L5,27.3869629 C2.23857625,27.3869629 3.38176876e-16,25.1483866 0,22.3869629 L0,13.3869629 Z" id="Rectangle"></path>
                <path d="M16,0 L16.8992447,-8.8817842e-16 C19.6606684,-1.39544373e-15 21.8992447,2.23857625 21.8992447,5 L21.8992447,7.93395116 C21.8992447,10.6953749 19.6606684,12.9339512 16.8992447,12.9339512 L16,12.9339512 L16,0 Z" id="Rectangle"></path>
                <path d="M9.96016495,12.9094062 C9.50317498,12.3302513 8.79500153,11.9584961 8,11.9584961 C7.22783394,11.9584961 6.53757953,12.3092015 6.07983234,12.8600169" id="Path"></path>
                <path d="M5.68091177,4.54283232 L7.55908557,4.54283232 C9.10548284,4.54283232 10.3590855,5.796435 10.3590855,7.34283227 L10.3590855,9.22100607 L8.48091173,9.22100607 C6.93451445,9.22100607 5.68091177,7.96740339 5.68091177,6.42100612 L5.68091177,4.54283232 Z" id="Rectangle" transform="translate(8.019999, 6.881919) rotate(-315.000000) translate(-8.019999, -6.881919) "></path>
                <path d="M0.892617945,23.1035156 L4.71203027,23.1035156" id="Path-61"></path>
                <path d="M9.34016263,23.1035156 L14.7230166,23.1035156" id="Path-61-Copy"></path>
            </g>
        </g>
        <g id="Bottle" transform="translate(436.501259, 361.867188)">
            <g id="Group-6-Copy-34" fill="#FFFFFF" opacity="0">
                <rect id="Rectangle-Copy-2" x="0" y="0" width="32" height="32"></rect>
            </g>
            <g id="Group-6" transform="translate(4.000000, 1.106934)" stroke="#404853" stroke-linecap="round" stroke-linejoin="round" stroke-width="2">
                <path d="M10.7270974,8.33164096 L13.122902,8.33164096 C18.1241131,8.33164096 22.1783957,12.3859236 22.1783957,17.3871347 C22.1783957,17.8963458 22.1354447,18.4046496 22.0499994,18.9066407 L21.1424018,24.2387764 C20.6270104,27.266701 18.0032031,29.4816404 14.9317286,29.4816404 L8.91827073,29.4816404 C5.84679627,29.4816404 3.22298894,27.266701 2.70759753,24.2387764 L1.79999995,18.9066407 C0.960799988,13.9763409 4.27729167,9.29923724 9.20759146,8.46003727 C9.70958254,8.37459198 10.2178863,8.33164096 10.7270974,8.33164096 Z" id="Rectangle"></path>
                <path d="M11.9249997,0 L11.9249997,0 C13.8760223,-3.58397045e-16 15.4576387,1.58161635 15.4576387,3.532639 L15.4576387,5.38237316 L8.39236069,5.38237316 L8.39236069,3.532639 C8.39236069,1.58161635 9.97397704,3.58397045e-16 11.9249997,0 Z" id="Rectangle"></path>
                <g id="Group-5" transform="translate(8.425000, 4.764673)">
                    <path d="M0.5,0.617700254 L0.5,3.03112793" id="Path-62"></path>
                    <path d="M6.2512207,0.586572324 L6.2512207,3" id="Path-62"></path>
                </g>
                <path d="M12.8923607,5.38237316 L3.89236069,5.38237316" id="Path-63"></path>
            </g>
        </g>
        <g id="Thermos" transform="translate(509.201511, 361.867188)">
            <g id="Group-113">
                <g id="Group-6-Copy-36" fill="#FFFFFF" opacity="0">
                    <rect id="Rectangle-Copy-2" x="0" y="0" width="32" height="32"></rect>
                </g>
                <g id="Group-112" transform="translate(6.636136, 1.500000)" stroke="#404853" stroke-linecap="round" stroke-linejoin="round" stroke-width="2">
                    <rect id="Rectangle" x="3.06430364" y="7.29833984" width="13" height="21.1918945"></rect>
                    <path d="M7.56430364,0 L11.5643036,0 C12.6688731,-2.02906125e-16 13.5643036,0.8954305 13.5643036,2 L13.5643036,7.29833984 L5.56430364,7.29833984 L5.56430364,2 C5.56430364,0.8954305 6.45973414,2.02906125e-16 7.56430364,0 Z" id="Rectangle"></path>
                    <path d="M2.70151067,26.0299525 L2.36279297,26.0299525 L2,26.0299525 C0.8954305,26.0299525 0,25.134522 0,24.0299525 L0,10.9856202 C0,9.88105068 0.8954305,8.98562018 2,8.98562018 L2,8.98562018 L2.36279297,8.98562018 L2.70151067,8.98562018" id="Path"></path>
                    <path d="M11.0692139,6.84047857 L11.0692139,0.840478574" id="Path-67"></path>
                </g>
            </g>
        </g>
        <g id="Basket" transform="translate(654.602014, 361.867188)">
            <g id="Group-6-Copy-37">
                <g id="Group-159">
                    <rect id="Rectangle-Copy-2" fill="#FFFFFF" opacity="0" x="0" y="0" width="32" height="32"></rect>
                    <rect id="Rectangle" stroke="#404853" stroke-width="2" stroke-linecap="round" stroke-linejoin="round" x="1.5" y="10.1762695" width="28.7104492" height="4.88586426"></rect>
                    <path d="M3.85522461,15.0621338 L27.8552246,15.0621338 L25.2339568,25.547205 C25.0113733,26.437539 24.2114071,27.0621338 23.2936718,27.0621338 L8.41677742,27.0621338 C7.49904214,27.0621338 6.69907592,26.437539 6.47649242,25.547205 L3.85522461,15.0621338 Z" id="Rectangle" stroke="#404853" stroke-width="2" stroke-linecap="round" stroke-linejoin="round"></path>
                    <path d="M21.8552246,27.6856689 L21.8552246,27.6856689 C21.8552246,28.7110902 21.0239564,29.5423584 19.9985352,29.5423584 L11.7119141,29.5423584 C10.6864928,29.5423584 9.85522461,28.7110902 9.85522461,27.6856689 L9.85522461,27.6856689" id="Shape" stroke="#404853" stroke-width="2" stroke-linecap="round" stroke-linejoin="round"></path>
                    <path d="M15.8552246,17.6599121 L15.8552246,3.65991211" id="Path-68" stroke="#404853" stroke-width="2" stroke-linecap="round" stroke-linejoin="round"></path>
                    <path d="M10.9119583,24.0337524 L10.9119583,21.0905151" id="Path-69" stroke="#404853" stroke-width="2" stroke-linecap="round" stroke-linejoin="round"></path>
                    <path d="M20.9119583,24.0337524 L20.9119583,21.0905151" id="Path-69" stroke="#404853" stroke-width="2" stroke-linecap="round" stroke-linejoin="round"></path>
                </g>
            </g>
            <g id="Group-114" transform="translate(1.500000, 3.659912)"></g>
        </g>
        <g id="Lighting-2" transform="translate(365.780499, 361.867188)">
            <g id="Group-6-Copy-38" fill="#FFFFFF" opacity="0">
                <rect id="Rectangle-Copy-2" x="0" y="0" width="32" height="32"></rect>
            </g>
            <g id="Group-117" transform="translate(4.500000, 2.000000)" stroke="#404853" stroke-linecap="round" stroke-linejoin="round" stroke-width="2">
                <path d="M7.92054153,8.63189839 L10,3.55942548 L13,3.55942548 L14.9652871,8.59797267 C16.2442144,11.87685 16.9005036,15.3654642 16.9005036,18.8849374 L16.9005036,20.2104492 C16.9005036,22.4195882 15.1096426,24.2104492 12.9005036,24.2104492 L9.90050356,24.2104492 C7.69136456,24.2104492 5.90050356,22.4195882 5.90050356,20.2104492 L5.90050356,18.8849374 C5.90050356,15.368396 6.5866703,11.8856425 7.92054153,8.63189839 Z" id="Rectangle"></path>
                <path d="M8.05895082,14.8169778 L10.7420563,14.8169778 C12.9511953,14.8169778 14.7420563,16.6078388 14.7420563,18.8169778 L14.7420563,21.5000833 L12.0589508,21.5000833 C9.84981182,21.5000833 8.05895082,19.7092223 8.05895082,17.5000833 L8.05895082,14.8169778 Z" id="Rectangle" transform="translate(11.400504, 18.158531) rotate(-315.000000) translate(-11.400504, -18.158531) "></path>
                <path d="M6.90050356,3.55942548 L15.9005036,3.55942548" id="Path-70"></path>
                <path d="M10.1890136,-2.84217094e-14 L12.6119935,-2.84217094e-14 C13.716563,-2.86246156e-14 14.6119935,0.8954305 14.6119935,2 L14.6119935,3.55942548 L8.18901363,3.55942548 L8.18901363,2 C8.18901363,0.8954305 9.08444413,-2.82188033e-14 10.1890136,-2.84217094e-14 Z" id="Rectangle"></path>
                <g id="Group-116" transform="translate(0.000000, 2.000000)">
                    <path d="M8,0.822947681 L8,0.822947681 C5.00440284,1.42206711 2.71329003,3.84683833 2.28479954,6.87156019 L0.701311749,18.0494281 C0.36499016,20.4235281 2.01693593,22.6207589 4.39103589,22.9570805 C4.59276541,22.9856581 4.79625635,23 5,23 L5,23" id="Path-71"></path>
                    <path d="M23,0.822947681 L23,0.822947681 C20.0044028,1.42206711 17.71329,3.84683833 17.2847995,6.87156019 L15.7013117,18.0494281 C15.3649902,20.4235281 17.0169359,22.6207589 19.3910359,22.9570805 C19.5927654,22.9856581 19.7962564,23 20,23 L20,23" id="Path-71" transform="translate(19.000000, 11.911474) scale(-1, 1) translate(-19.000000, -11.911474) "></path>
                </g>
                <path d="M5.35075533,24.4729004 L17.4502518,24.4729004 L17.4502518,25.4729004 C17.4502518,26.5774699 16.5548213,27.4729004 15.4502518,27.4729004 L7.35075533,27.4729004 C6.24618584,27.4729004 5.35075533,26.5774699 5.35075533,25.4729004 L5.35075533,24.4729004 Z" id="Rectangle"></path>
            </g>
        </g>
        <g id="Trailer" transform="translate(581.901762, 361.867188)">
            <g id="Group-6-Copy-39" fill="#FFFFFF" opacity="0">
                <rect id="Rectangle-Copy-2" x="0" y="0" width="32" height="32"></rect>
            </g>
            <g id="Group-119" transform="translate(2.000000, 3.521632)" stroke="#404853" stroke-linecap="round" stroke-linejoin="round" stroke-width="2">
                <path d="M16.0725098,22.8262688 L5.39871756,22.8613281 C4.20918208,22.8613281 3.24487305,21.9658976 3.24487305,20.8613281 L3.24487305,10 C3.24487305,4.4771525 8.06641822,0 14.0140956,0 L25.7109016,0 C26.9004371,0 27.8647461,0.8954305 27.8647461,2 L27.8647461,20.8613281 C27.8647461,21.9658976 26.9004371,22.8613281 25.7109016,22.8613281 L24.8577246,22.8613281" id="Path"></path>
                <polyline id="Path-72" points="8 22.8613281 0 22.8613281 0 19.8613281"></polyline>
                <g id="Group-118" transform="translate(16.779053, 18.826269)">
                    <circle id="Oval" cx="4.03505936" cy="4.03505936" r="4.03505936"></circle>
                    <path d="M4.03505936,4.09585571 L4.03505936,4.02926636" id="Path-74"></path>
                </g>
                <rect id="Rectangle" x="6.51293945" y="8.86132812" width="7" height="14"></rect>
                <rect id="Rectangle" x="17.6611328" y="4.16674734" width="10.2036133" height="8.15952143"></rect>
            </g>
            <path d="" id="Path-73" stroke="#979797"></path>
        </g>
        <g id="Jacket" transform="translate(727.232930, 361.867188)">
            <g id="Group-105">
                <g id="Group-6-Copy-35" fill="#FFFFFF" opacity="0">
                    <rect id="Rectangle-Copy-2" x="0" y="0" width="32" height="32"></rect>
                </g>
                <g id="Group-20" transform="translate(3.218506, 2.990234)" stroke="#404853" stroke-linecap="round" stroke-linejoin="round" stroke-width="2">
                    <path d="M11,15.0540979 L11,17.0540979 M11,21.0540979 L11,23.5540979 C11,24.6586674 10.1045695,25.5540979 9,25.5540979 L2,25.5540979 C0.8954305,25.5540979 0,24.6586674 0,23.5540979 L0,10.8333136 C0,8.92658948 1.34583867,7.28493022 3.21553546,6.91099086 L5,6.55409795 L5,6.55409795 L4.41913682,3.06891888 C4.18549961,1.66709559 5.10643827,0.332810297 6.5,0.0540979499 L6.5,0.0540979499 C7.91224153,-0.228350356 9.30474824,0.620716788 9.7004042,2.00551264 L11,6.55409795 L11,11.0540979" id="Shape"></path>
                    <path d="M24.9719238,14.5540979 L24.9719238,17.0540979 M24.9719238,21.0540979 L24.9719238,23.5540979 C24.9719238,24.6586674 24.0764933,25.5540979 22.9719238,25.5540979 L15.9719238,25.5540979 C14.8673543,25.5540979 13.9719238,24.6586674 13.9719238,23.5540979 L13.9719238,10.8333136 C13.9719238,8.92658948 15.3177625,7.28493022 17.1874593,6.91099086 L18.9719238,6.55409795 L18.3910607,3.06891888 C18.1574234,1.66709559 19.0783621,0.332810297 20.4719238,0.0540979499 C21.8841654,-0.228350356 23.2766721,0.620716788 23.672328,2.00551264 L24.9719238,6.55409795 L24.9719238,11.0540979" id="Shape" transform="translate(19.721924, 12.777049) scale(-1, 1) translate(-19.721924, -12.777049) "></path>
                    <g id="Group-16" transform="translate(0.234703, 11.411520)">
                        <rect id="Rectangle" x="6.00125889" y="0" width="13" height="3"></rect>
                        <path d="M6,1.64257812 L0,1.64257812" id="Path-64"></path>
                        <path d="M25.0012589,1.64257812 L19.0012589,1.64257812" id="Path-64"></path>
                    </g>
                    <g id="Group-16" transform="translate(0.234703, 17.411520)">
                        <rect id="Rectangle" x="6.00125889" y="0" width="13" height="3"></rect>
                        <path d="M6,1.64257812 L0,1.64257812" id="Path-64"></path>
                        <path d="M25.0012589,1.64257812 L19.0012589,1.64257812" id="Path-64"></path>
                    </g>
                    <path d="M15.234703,3.05409795 L10.234703,3.05409795" id="Path-65"></path>
                    <path d="M16.2359619,25.5540979 L9.23596191,25.5540979" id="Path-66"></path>
                </g>
            </g>
        </g>
        <g id="Fishing" transform="translate(75.527344, 435.500000)">
            <g id="Group-6-Copy-32" fill="#FFFFFF" opacity="0">
                <rect id="Rectangle-Copy-2" x="0" y="0" width="32" height="32"></rect>
            </g>
            <g id="Group-122" transform="translate(3.059814, 1.852539)" stroke="#404853" stroke-linecap="round" stroke-linejoin="round" stroke-width="2">
                <g id="Group-120" transform="translate(11.587891, 0.000000)">
                    <path d="M9.96407968,19.6108921 C10.9108007,17.537602 11.5,14.6227469 11.5,11.3942871 C11.5,5.1013961 9.26142375,0 6.5,0 C3.73857625,0 1.5,5.1013961 1.5,11.3942871 C1.5,16.1641468 2.7861235,20.2494599 4.61120846,21.9475507" id="Shape"></path>
                    <path d="M4.88876271,22.6508838 L10,19 L8.50780237,25.1990615 C8.05469457,27.0814148 6.31849015,28.3690271 4.38566387,28.2561417 L0,28 L1.60733561,25.8568858 C2.5302863,24.6262849 3.63703627,23.5449741 4.88876271,22.6508838 Z" id="Rectangle"></path>
                    <polyline id="Shape" transform="translate(9.972412, 23.750000) scale(-1, 1) translate(-9.972412, -23.750000) " points="13 27.5 6.94482422 28 10 19.5"></polyline>
                    <path d="M2,8 C5.33333333,10 8.33333333,10 11,8" id="Path-75"></path>
                    <path d="M4.5,13.6234131 C5.83333333,16.2900798 7.16666667,16.2900798 8.5,13.6234131" id="Path-76"></path>
                    <path d="M11,8 L11.4222912,8.21114562 C13.6149475,9.30747376 15,11.5485357 15,14 L15,14 L12,14" id="Path-77"></path>
                </g>
                <g id="Group-121">
                    <path d="M2.5,0 L2.5,8 M2.5,14 L2.5,22 C2.5,23.6568542 3.84314575,25 5.5,25 C7.15685425,25 8.5,23.6568542 8.5,22 L8.5,14 L6.5,17" id="Shape"></path>
                    <circle id="Oval" cx="2.5" cy="10.6279297" r="2.5"></circle>
                </g>
            </g>
            <path d="M22.9489441,7.04055786 L23.3988953,7.04055786" id="Path-78" stroke="#404853" stroke-width="2" stroke-linecap="round" stroke-linejoin="round" transform="translate(22.948944, 7.040558) rotate(89.000000) translate(-22.948944, -7.040558) "></path>
        </g>
        <g id="Hat-2" transform="translate(147.727596, 435.500000)">
            <g id="Group-124">
                <g id="Group-6-Copy-40" fill="#FFFFFF" opacity="0">
                    <rect id="Rectangle-Copy-2" x="0" y="0" width="32" height="32"></rect>
                </g>
                <g id="Group-123" transform="translate(1.500000, 1.852539)" stroke="#404853" stroke-linecap="round" stroke-linejoin="round" stroke-width="2">
                    <path d="M11,3.22570801 L11.2321232,3.41289846 C13.469661,5.21730932 16.6246168,5.34435823 19,3.72570801 L19,3.72570801 C20.2681065,2.86158601 21.9966192,3.18908014 22.8607412,4.45718662 C23.1380401,4.86412519 23.3022078,5.33744948 23.3364349,5.82869503 L23.8509664,13.2135279 C23.9277401,14.3154261 23.0967126,15.2709284 21.9948144,15.3477022 C21.9485474,15.3509258 21.9021824,15.3525391 21.8558032,15.3525391 L7.27744252,15.3525391 C6.17287302,15.3525391 5.27744252,14.4571086 5.27744252,13.3525391 C5.27744252,13.2661475 5.28304014,13.1798466 5.29420022,13.0941789 L6.33619544,5.09554272 C6.54166856,3.51827567 7.98686502,2.40621696 9.56413208,2.61169008 C10.0901697,2.68021785 10.5870605,2.89270248 11,3.22570801 Z" id="Rectangle"></path>
                    <path d="M0,15.4733887 L29,15.4733887" id="Path-79"></path>
                    <path d="M12.1347656,4.01403809 C14.0449219,6.00467936 16.3333333,7 19,7" id="Path-80"></path>
                    <path d="M6,15.3525391 L23,15.3525391 L23.1658597,17.0940663 C23.5847527,21.4924421 20.3587444,25.3976099 15.9603687,25.8165028 C15.7082574,25.8405134 15.4551481,25.8525391 15.201896,25.8525391 L13.798104,25.8525391 C9.37982604,25.8525391 5.79810404,22.2708171 5.79810404,17.8525391 C5.79810404,17.5992869 5.81012966,17.3461777 5.83414026,17.0940663 L6,15.3525391 Z" id="Rectangle"></path>
                    <path d="M16.3925499,27.745089 C16.3925499,26.6998625 15.5452264,25.8525391 14.5,25.8525391 C13.4547736,25.8525391 12.6074501,26.6998625 12.6074501,27.745089" id="Path"></path>
                    <path d="M6,12 L23,12" id="Path-81"></path>
                </g>
            </g>
        </g>
        <g id="Match" transform="translate(75.527344, 507.536910)">
            <g id="Group-124-Copy" fill="#FFFFFF" opacity="0">
                <g id="Group-6-Copy-40">
                    <rect id="Rectangle-Copy-2" x="0" y="0" width="32" height="32"></rect>
                </g>
            </g>
            <g id="Group-149" transform="translate(5.500000, 2.325195)" stroke="#404853" stroke-linecap="round" stroke-linejoin="round" stroke-width="2">
                <rect id="Rectangle" x="0" y="12" width="20.5777588" height="15.2299805"></rect>
                <g id="Group-148" transform="translate(0.577759, 0.000000)">
                    <path d="M0,12 L0,2 C0,0.8954305 0.8954305,0 2,0 L2,0 L17.2369385,0 C18.341508,0 19.2369385,0.8954305 19.2369385,2 L19.2369385,12" id="Path"></path>
                    <g id="Group-147" transform="translate(1.778198, 3.000000)">
                        <g id="Group-146">
                            <ellipse id="Oval" cx="1.5" cy="2.5" rx="1.5" ry="2.5"></ellipse>
                            <path d="M1.5,5 L1.5,9" id="Path-98"></path>
                        </g>
                        <g id="Group-146-Copy" transform="translate(6.320740, 0.000000)">
                            <ellipse id="Oval" cx="1.5" cy="2.5" rx="1.5" ry="2.5"></ellipse>
                            <path d="M1.5,5 L1.5,9" id="Path-98"></path>
                        </g>
                        <g id="Group-146-Copy-2" transform="translate(12.641479, 0.000000)">
                            <ellipse id="Oval" cx="1.5" cy="2.5" rx="1.5" ry="2.5"></ellipse>
                            <path d="M1.5,5 L1.5,9" id="Path-98"></path>
                        </g>
                    </g>
                </g>
            </g>
        </g>
        <g id="Mattress" transform="translate(147.727596, 507.536910)">
            <g id="Group-124-Copy-2" fill="#FFFFFF" opacity="0">
                <g id="Group-6-Copy-40">
                    <rect id="Rectangle-Copy-2" x="0" y="0" width="32" height="32"></rect>
                </g>
            </g>
            <g id="Group-150" transform="translate(1.933962, 3.000000)" stroke="#404853" stroke-linecap="round" stroke-linejoin="round" stroke-width="2">
                <path d="M7.16449432,4.16040039 L7.16449432,22.3352051 L7.16449432,22.3352051 C7.16449432,24.3136256 5.56066763,25.9174522 3.58224716,25.9174522 C1.60382668,25.9174522 0,24.3136256 0,22.3352051 L0,4.16040039" id="Path"></path>
                <circle id="Oval" cx="3.58224716" cy="4.58224716" r="3.58224716"></circle>
                <path d="M3.50631942,0.882568359 L22.2508919,0.882568359 C23.3554614,0.882568359 24.2508919,1.77799886 24.2508919,2.88256836 L24.2508919,20.6396202 C24.2508919,21.7441897 23.3554614,22.6396202 22.2508919,22.6396202 L7.50631942,22.6396202" id="Shape"></path>
                <g id="Group-151" transform="translate(24.601994, 4.382568)">
                    <path d="M0,0.5 L3,0.5" id="Path-99"></path>
                    <path d="M0,5.37353516 L3,5.37353516" id="Path-99-Copy"></path>
                    <path d="M0,10.2470703 L3,10.2470703" id="Path-99-Copy-2"></path>
                    <path d="M0,15.1206055 L3,15.1206055" id="Path-99-Copy-3"></path>
                </g>
            </g>
        </g>
        <g id="Rafting" transform="translate(220.692479, 435.500000)">
            <g id="Group-6-Copy-41" fill="#FFFFFF" opacity="0">
                <rect id="Rectangle-Copy-2" x="0" y="0" width="32" height="32"></rect>
            </g>
            <g id="Group-127" transform="translate(0.856077, 0.404297)" stroke="#404853" stroke-linecap="round" stroke-linejoin="round" stroke-width="2">
                <g id="Group-125" transform="translate(15.500000, 15.500000) rotate(44.000000) translate(-15.500000, -15.500000) translate(9.000000, 1.000000)">
                    <ellipse id="Oval" cx="6.14392275" cy="14.2255859" rx="6.14392275" ry="14.2255859"></ellipse>
                    <ellipse id="Oval" cx="6.14392275" cy="14.2255859" rx="3" ry="5.5"></ellipse>
                    <path d="M2.74341919,3.74316406 L9.74341919,3.74316406" id="Path-82"></path>
                    <path d="M2.4582538,24.6804199 L9.4582538,24.6804199" id="Path-83"></path>
                </g>
                <g id="Group-126" transform="translate(15.500000, 15.500000) rotate(-45.000000) translate(-15.500000, -15.500000) translate(12.500000, -2.000000)">
                    <path d="M3.04974822,7.4317905 L3,26.7025425" id="Path-84"></path>
                    <path d="M3,26.7025425 L3,26.7025425 C4.65685425,26.7025425 6,28.0456882 6,29.7025425 L6,32.1343329 C6,33.2389024 5.1045695,34.1343329 4,34.1343329 L2,34.1343329 C0.8954305,34.1343329 6.25798147e-16,33.2389024 0,32.1343329 L-4.4408921e-16,29.7025425 C-6.46995335e-16,28.0456882 1.34314575,26.7025425 3,26.7025425 Z" id="Rectangle"></path>
                    <path d="M3,0 L3,0 C4.65685425,-3.04359188e-16 6,1.34314575 6,3 L6,5.4317905 C6,6.53636 5.1045695,7.4317905 4,7.4317905 L2,7.4317905 C0.8954305,7.4317905 6.25798147e-16,6.53636 0,5.4317905 L-4.4408921e-16,3 C-6.46995335e-16,1.34314575 1.34314575,3.04359188e-16 3,0 Z" id="Rectangle-Copy" transform="translate(3.000000, 3.715895) rotate(-180.000000) translate(-3.000000, -3.715895) "></path>
                </g>
            </g>
        </g>
        <g id="Sleeping-Bag" transform="translate(291.413238, 435.500000)">
            <g id="Group-6-Copy-42" fill="#FFFFFF" opacity="0">
                <rect id="Rectangle-Copy-2" x="0" y="0" width="32" height="32"></rect>
            </g>
            <g id="Group-129" transform="translate(16.000000, 16.316355) rotate(42.000000) translate(-16.000000, -16.316355) translate(9.000000, 2.316355)" stroke="#404853" stroke-linecap="round" stroke-linejoin="round" stroke-width="2">
                <rect id="Rectangle" x="0" y="0" width="13.3962402" height="6.55419922"></rect>
                <rect id="Rectangle-Copy-11" x="0" y="7.12890625" width="13.3962402" height="6.55419922"></rect>
                <rect id="Rectangle-Copy-12" x="0" y="14.2578125" width="13.3962402" height="6.55419922"></rect>
                <rect id="Rectangle-Copy-13" x="0" y="21.3867188" width="13.3962402" height="6.55419922"></rect>
                <path d="M0,2.80126953 L13,2.80126953" id="Path-85"></path>
                <polygon id="Path-86" points="6.91906738 7.31787109 11.9190674 13.3178711 5.91906738 13.3178711"></polygon>
            </g>
        </g>
        <g id="Park-Bench" transform="translate(364.113490, 435.500000)">
            <g id="Group-6-Copy-43" fill="#FFFFFF" opacity="0">
                <rect id="Rectangle-Copy-2" x="0" y="0" width="32" height="32"></rect>
            </g>
            <g id="Group-130" transform="translate(1.000000, 7.346680)" stroke="#404853" stroke-linecap="round" stroke-linejoin="round" stroke-width="2">
                <rect id="Rectangle" x="4.61901855" y="0" width="20" height="4"></rect>
                <g id="Group-128" transform="translate(0.000000, 4.800781)">
                    <rect id="Rectangle" x="0" y="4.87231445" width="9.23803711" height="3"></rect>
                    <path d="M4.59119045,8 L4.59119045,13 C4.59119045,14.1045695 5.48662095,15 6.59119045,15 L9.95158265,15 C10.9049447,15 11.7257743,14.3270807 11.912744,13.3922323 L14.5911905,0" id="Path-87"></path>
                </g>
                <g id="Group-128" transform="translate(22.500000, 12.300781) scale(-1, 1) translate(-22.500000, -12.300781) translate(15.000000, 4.800781)">
                    <rect id="Rectangle" x="0" y="4.87231445" width="9.23803711" height="3"></rect>
                    <path d="M4.59119045,8 L4.59119045,13 C4.59119045,14.1045695 5.48662095,15 6.59119045,15 L9.95158265,15 C10.9049447,15 11.7257743,14.3270807 11.912744,13.3922323 L14.5911905,0" id="Path-87"></path>
                </g>
            </g>
        </g>
        <g id="Cactus" transform="translate(436.501259, 435.500000)">
            <g id="Group-166">
                <rect id="Rectangle-Copy-2" fill="#FFFFFF" opacity="0" x="0" y="0" width="32" height="32"></rect>
                <path d="M19.6286628,23.7593234 L19.6286628,25.9163545 C19.6286628,26.80001 18.9123184,27.5163544 18.0286628,27.5163544 L14.0286631,27.5163544 C13.1450075,27.5163544 12.4286632,26.80001 12.4286632,25.9163545 L12.4286632,18.5130346 C12.4286632,17.6293791 11.7123188,16.9130347 10.8286633,16.9130347 L8.40841646,16.9130347 C6.1880955,16.9130347 4.38816973,15.113109 4.38816973,12.892788 L4.38816973,10.0277981 C4.38816973,8.44455461 5.67164216,7.16108218 7.25488563,7.16108218 L7.25488563,7.16108218 C8.8381291,7.16108218 10.1216015,8.44455461 10.1216015,10.0277981 L10.1216015,11.1796029 L12.4286632,11.1796029 L12.4286632,8.71635553 C12.4286632,6.72813055 14.040438,5.11635574 16.028663,5.11635574 L16.028663,5.11635574 C18.0168879,5.11635574 19.6286628,6.72813055 19.6286628,8.71635553 L19.6286628,16.4258917 L22.3660647,16.4258917 L22.3660647,15.2740868 C22.3660647,13.6908434 23.6495371,12.4073709 25.2327805,12.4073709 L25.2327805,12.4073709 C26.816024,12.4073709 28.0994964,13.6908434 28.0994964,15.2740868 L28.0994964,17.9239066 C28.0994964,20.2630628 26.2032357,22.1593235 23.8640796,22.1593235 L21.2286627,22.1593235 C20.3450071,22.1593235 19.6286628,22.8756678 19.6286628,23.7593234 Z" id="Path" stroke="#404853" stroke-width="2" stroke-linecap="round" stroke-linejoin="round"></path>
                <path d="M19.7958602,7.21655273 L21.7958602,7.21655273" id="Path-88" stroke="#404853" stroke-width="2" stroke-linecap="round" stroke-linejoin="round"></path>
                <path d="M19.7958602,11.1574707 L21.7958602,11.1574707" id="Path-88-Copy" stroke="#404853" stroke-width="2" stroke-linecap="round" stroke-linejoin="round"></path>
                <path d="M11.4987411,20.1474609 L9.49874111,20.1474609" id="Path-15" stroke="#404853" stroke-width="2" stroke-linecap="round" stroke-linejoin="round"></path>
                <path d="M11.7094345,23.3077393 L9.70943447,23.3077393" id="Path-15-Copy" stroke="#404853" stroke-width="2" stroke-linecap="round" stroke-linejoin="round"></path>
                <path d="M28.3225936,16.123291 L30.3225936,16.123291" id="Path-89" stroke="#404853" stroke-width="2" stroke-linecap="round" stroke-linejoin="round"></path>
                <path d="M2.41805263,15.1838379 L4.41805263,15.1838379" id="Path-89-Copy" stroke="#404853" stroke-width="2" stroke-linecap="round" stroke-linejoin="round"></path>
            </g>
        </g>
        <g id="Ice-Basket" transform="translate(509.201511, 435.500000)">
            <g id="Group-6-Copy-37" fill="#FFFFFF" opacity="0">
                <rect id="Rectangle-Copy-2" x="0" y="0" width="32" height="32"></rect>
            </g>
            <g id="Group-137" transform="translate(1.500000, 1.021000)" stroke="#404853" stroke-linecap="round" stroke-linejoin="round" stroke-width="2">
                <g id="Group-135" transform="translate(4.077759, 6.841168)">
                    <g id="Group-134">
                        <path d="M0,4.92042857 L0,3.30310059 C0,2.19853109 0.8954305,1.30310059 2,1.30310059 L5,1.30310059 C6.1045695,1.30310059 7,2.19853109 7,3.30310059 L7,4.92042857" id="Path"></path>
                        <path d="M0,0.5 L7,0.5" id="Path-90"></path>
                    </g>
                    <g id="Group-134" transform="translate(12.410889, 0.000000)">
                        <path d="M0,4.92042857 L0,3.30310059 C0,2.19853109 0.8954305,1.30310059 2,1.30310059 L5,1.30310059 C6.1045695,1.30310059 7,2.19853109 7,3.30310059 L7,4.92042857" id="Path"></path>
                        <path d="M0,0.5 L7,0.5" id="Path-90"></path>
                    </g>
                </g>
                <g id="Group-136">
                    <g id="Group-133">
                        <rect id="Rectangle" x="0" y="12" width="28.3762207" height="5.07627553"></rect>
                        <path d="M1.68811035,17.0762755 L26.6881104,17.0762755 L26.6881104,23.2352111 C26.6881104,26.5489196 24.0018189,29.2352111 20.6881104,29.2352111 L7.68811035,29.2352111 C4.37440185,29.2352111 1.68811035,26.5489196 1.68811035,23.2352111 L1.68811035,17.0762755 Z" id="Rectangle"></path>
                        <path d="M1.9314239,11.5521056 L1.9314239,6.55210561 C1.9314239,3.23839711 4.6177154,0.552105612 7.9314239,0.552105612 L19.9314239,0.552105612 C23.2451324,0.552105612 25.9314239,3.23839711 25.9314239,6.55210561 L25.9314239,11.5521056" id="Path-91"></path>
                    </g>
                </g>
            </g>
        </g>
        <g id="Marshmallow" transform="translate(652.602014, 435.500000)">
            <g id="Group-6-Copy-46" fill="#FFFFFF" opacity="0">
                <rect id="Rectangle-Copy-2" x="0" y="0" width="32" height="32"></rect>
            </g>
            <g id="Group-142" transform="translate(15.955407, 16.611430) rotate(42.000000) translate(-15.955407, -16.611430) translate(7.455407, 5.111430)" stroke="#404853" stroke-linecap="round" stroke-linejoin="round">
                <g id="Group-141">
                    <g id="Group-140" transform="translate(0.000000, 1.626328)" stroke-width="1.5999999">
                        <rect id="Rectangle" x="1.13686838e-13" y="0" width="6.63078579" height="6.63078579"></rect>
                    </g>
                    <g id="Group-140-Copy" transform="translate(0.000000, 10.136796)" stroke-width="1.5999999">
                        <rect id="Rectangle" x="1.13686838e-13" y="0" width="6.63078579" height="6.63078579"></rect>
                    </g>
                    <path d="M3.33982381,22.3999987 L3.33982381,16.869042 M3.33982381,10.4690423 L3.33982381,8.86904244 M3.33982381,2.46904282 L3.33982381,0" id="Shape" stroke-width="2"></path>
                    <path d="M2.94871055,20.0690418 L1.34871065,18.4690419" id="Path-94" stroke-width="2"></path>
                </g>
                <g id="Group-141-Copy" transform="translate(9.637890, 0.000000)" stroke-width="2">
                    <g id="Group-140" transform="translate(0.000000, 1.626328)">
                        <rect id="Rectangle" x="1.13686838e-13" y="0" width="6.63078579" height="6.63078579"></rect>
                    </g>
                    <g id="Group-140-Copy" transform="translate(0.000000, 10.136796)">
                        <rect id="Rectangle" x="1.13686838e-13" y="0" width="6.63078579" height="6.63078579"></rect>
                    </g>
                    <path d="M3.33982381,22.3999987 L3.33982381,16.869042 M3.33982381,10.4690423 L3.33982381,8.86904244 M3.33982381,2.46904282 L3.33982381,0" id="Shape"></path>
                    <path d="M2.94871055,20.0690418 L1.34871065,18.4690419" id="Path-94"></path>
                </g>
            </g>
        </g>
        <g id="Cooking" transform="translate(727.232930, 435.500000)">
            <g id="Group-6-Copy-47" fill="#FFFFFF" opacity="0">
                <rect id="Rectangle-Copy-2" x="0" y="0" width="32" height="32"></rect>
            </g>
            <g id="Group-143" transform="translate(0.500000, 2.639396)">
                <g id="Group-145">
                    <path d="M4.5,27 L4.5,0.468894804" id="Path-93" stroke="#404853" stroke-width="2" stroke-linecap="round" stroke-linejoin="round"></path>
                    <path d="M27.1992188,27 L27.1992188,0.468894804" id="Path-93-Copy" stroke="#404853" stroke-width="2" stroke-linecap="round" stroke-linejoin="round"></path>
                    <path d="M14.3626392,20.4250171 L15.6773609,20.4250171 C16.7598389,20.4250171 17.6373608,21.302539 17.6373608,22.3850171 L17.6373608,23.6997387 L16.3226391,23.6997387 C15.2401611,23.6997387 14.3626392,22.8222169 14.3626392,21.7397388 L14.3626392,20.4250171 Z" id="Rectangle" stroke="#404853" stroke-width="2" stroke-linecap="round" stroke-linejoin="round" transform="translate(16.000000, 22.062378) rotate(-315.000000) translate(-16.000000, -22.062378) "></path>
                    <path d="M0.5,4.17797852 L30.5,4.17797852" id="Path-95" stroke="#404853" stroke-width="2" stroke-linecap="round" stroke-linejoin="round"></path>
                    <g id="Group-144" transform="translate(8.500000, 5.160889)"></g>
                    <path d="M16,5.16088867 L16,5.16088867 C19.8399026,5.16088867 22.9527588,8.27374481 22.9527588,12.1136475 L22.9527588,15.0664062 C22.9527588,17.2755452 21.1618978,19.0664062 18.9527588,19.0664062 L13.0472412,19.0664062 C10.8381022,19.0664062 9.04724121,17.2755452 9.04724121,15.0664062 L9.04724121,12.1136475 C9.04724121,8.27374481 12.1600974,5.16088867 16,5.16088867 Z" id="Rectangle" stroke="#404853" stroke-width="2" stroke-linecap="round" stroke-linejoin="round"></path>
                    <path d="M9.34472656,12.9829102 L22.5,12.9829102" id="Path-96" stroke="#404853" stroke-width="2" stroke-linecap="round" stroke-linejoin="round"></path>
                    <path d="M12,26.34375 C14.6666667,24.34375 17.3333333,24.34375 20,26.34375" id="Path-97" stroke="#404853" stroke-width="2" stroke-linecap="round" stroke-linejoin="round"></path>
                </g>
            </g>
        </g>
        <g id="Rope" transform="translate(582.805083, 435.500000)">
            <g id="Group-6-Copy-45" fill="#FFFFFF" opacity="0">
                <rect id="Rectangle-Copy-2" x="0" y="0" width="32" height="32"></rect>
            </g>
            <g id="Group-139" transform="translate(16.292542, 16.272799) rotate(43.000000) translate(-16.292542, -16.272799) translate(7.792542, 2.772799)" stroke="#404853" stroke-linecap="round" stroke-linejoin="round" stroke-width="2">
                <path d="M3.9366824,9.27511719 L3.41952677,5.39644999 C3.07161091,2.78708103 4.90488087,0.389728008 7.51424983,0.0418121464 C7.72308082,0.0139680144 7.93352813,3.87011207e-17 8.14420722,0 C10.7766684,-4.83575272e-16 12.9106998,2.13403142 12.9106998,4.7664926 C12.9106998,4.97717168 12.8967318,5.187619 12.8688877,5.39644999 C12.6529512,7.01597346 12.4909989,8.23061606 12.3830306,9.0403778" id="Path"></path>
                <path d="M3.88998616,27.0000011 L3.37587091,23.1441367 C3.02795505,20.5347678 4.86122501,18.1374147 7.47059397,17.7894989 C7.67942496,17.7616548 7.88987227,17.7476867 8.10055136,17.7476867 L8.10055136,17.7476867 L8.10055136,17.7476867 C10.7330125,17.7476867 12.867044,19.8817182 12.867044,22.5141793 C12.867044,22.7248584 12.8530759,22.9353057 12.8252318,23.1441367 L12.3135968,26.981399" id="Path" transform="translate(8.100276, 22.373844) rotate(-180.000000) translate(-8.100276, -22.373844) "></path>
                <g id="Group-138" transform="translate(0.000000, 9.431100)">
                    <path d="M2.01100274,-7.10542736e-15 L14.1889979,-7.99360578e-15 C15.299644,-8.19762816e-15 16.2000006,0.900356596 16.2000006,2.01100274 L16.2000006,2.01100274 C16.2000006,3.12164889 15.299644,4.02200548 14.1889979,4.02200548 L2.01100274,4.02200548 C0.900356596,4.02200548 1.36014925e-16,3.12164889 0,2.01100274 L0,2.01100274 C-1.36014925e-16,0.900356596 0.900356596,-7.34549418e-15 2.01100274,-7.54951657e-15 Z" id="Rectangle"></path>
                    <path d="M2.01100274,4.02200548 L14.1889979,4.02200548 C15.299644,4.02200548 16.2000006,4.92236208 16.2000006,6.03300822 L16.2000006,6.03300822 C16.2000006,7.14365437 15.299644,8.04401097 14.1889979,8.04401097 L2.01100274,8.04401097 C0.900356596,8.04401097 1.36014925e-16,7.14365437 0,6.03300822 L0,6.03300822 C-1.36014925e-16,4.92236208 0.900356596,4.02200548 2.01100274,4.02200548 Z" id="Rectangle-Copy-7"></path>
                </g>
            </g>
        </g>
        <g id="Tree-2" transform="translate(436.501259, 289.114454)">
            <g id="Group-6-Copy-26" fill="#FFFFFF" opacity="0">
                <rect id="Rectangle-Copy-2" x="0" y="0" width="32" height="32"></rect>
            </g>
            <path d="M21.2703942,9.0083389 C22.5205264,10.3167641 23.2883161,12.0899632 23.2883161,14.0424893 C23.2883161,14.2696817 23.2779208,14.4944461 23.2575799,14.7163329 C24.3381863,16.1984392 24.9758249,18.0241445 24.9758249,19.9987783 C24.9758249,24.9559895 20.9572112,28.9746032 16,28.9746032 C11.0427888,28.9746032 7.02417515,24.9559895 7.02417515,19.9987783 C7.02417515,18.0241445 7.66181367,16.1984392 8.74242009,14.7163329 C8.72207922,14.4944461 8.71168394,14.2696817 8.71168394,14.0424893 C8.71168394,12.0899632 9.47947357,10.3167641 10.7296058,9.0083389 C10.4333017,8.31646107 10.2692533,7.55447492 10.2692533,6.7541732 C10.2692533,3.58916917 12.834996,1.02342647 16,1.02342647 C19.165004,1.02342647 21.7307467,3.58916917 21.7307467,6.7541732 C21.7307467,7.55447492 21.5666983,8.31646107 21.2703942,9.0083389 Z" id="Combined-Shape" stroke="#404853" stroke-width="2" stroke-linecap="round" stroke-linejoin="round"></path>
            <path d="M16,30.6597158 L16,19.6597158" id="Path-6" stroke="#404853" stroke-width="2" stroke-linecap="round" stroke-linejoin="round"></path>
        </g>
        <g id="Tree-3" transform="translate(509.201511, 289.114454)">
            <g id="Group-106" fill="#FFFFFF" opacity="0">
                <g id="Group-6-Copy-27">
                    <rect id="Rectangle-Copy-2" x="0" y="0" width="32" height="32"></rect>
                </g>
            </g>
            <g id="Group-74" transform="translate(5.463867, 0.623047)" stroke="#404853" stroke-linecap="round" stroke-linejoin="round" stroke-width="2">
                <g id="Group-75">
                    <polygon id="Triangle" points="10.6259766 0.37962764 21.1259766 26.8690211 0.125976562 26.8690211"></polygon>
                    <path d="M10.6259766,30.1748525 L10.6259766,20.1748525" id="Path-60"></path>
                </g>
            </g>
        </g>
        <text id="Camping-(52-Icons)" font-family="OpenSans-Bold, Open Sans" font-size="24" font-weight="bold" letter-spacing="0.05" fill="#404852">
            <tspan x="73.5" y="83">Camping </tspan>
            <tspan x="185.333594" y="83" font-family="OpenSans-Regular, Open Sans" font-weight="normal">(52 Icons) </tspan>
        </text>
    </g>
</svg>