<?xml version="1.0" encoding="UTF-8"?>
<svg width="50px" height="55px" viewBox="0 0 24 26" version="1.1" xmlns="http://www.w3.org/2000/svg" xmlns:xlink="http://www.w3.org/1999/xlink">
    <!-- Generator: Sketch 56.2 (81672) - https://sketch.com -->
    <title>Rope</title>
    <desc>Created with Sketch.</desc>
    <g id="Page-1" stroke="none" stroke-width="1" fill="none" fill-rule="evenodd">
        <g id="Camping" transform="translate(-587.000000, -439.000000)">
            <g id="Rope" transform="translate(583.000000, 436.000000)">
                <g id="Group-6-Copy-45" fill="#FFFFFF" opacity="0">
                    <rect id="Rectangle-Copy-2" x="0" y="0" width="32" height="32"></rect>
                </g>
                <g id="Group-139" transform="translate(16.292542, 16.272799) rotate(43.000000) translate(-16.292542, -16.272799) translate(7.792542, 2.772799)" stroke="#404853" stroke-linecap="round" stroke-linejoin="round" stroke-width="2">
                    <path d="M3.9366824,9.27511719 L3.41952677,5.39644999 C3.07161091,2.78708103 4.90488087,0.389728008 7.51424983,0.0418121464 C7.72308082,0.0139680144 7.93352813,0 8.14420722,0 C10.7766684,0 12.9106998,2.13403142 12.9106998,4.7664926 C12.9106998,4.97717168 12.8967318,5.187619 12.8688877,5.39644999 C12.6529512,7.01597346 12.4909989,8.23061606 12.3830306,9.0403778" id="Path"></path>
                    <path d="M3.88998616,27.0000011 L3.37587091,23.1441367 C3.02795505,20.5347678 4.86122501,18.1374147 7.47059397,17.7894989 C7.67942496,17.7616548 7.88987227,17.7476867 8.10055136,17.7476867 L8.10055136,17.7476867 L8.10055136,17.7476867 C10.7330125,17.7476867 12.867044,19.8817182 12.867044,22.5141793 C12.867044,22.7248584 12.8530759,22.9353057 12.8252318,23.1441367 L12.3135968,26.981399" id="Path" transform="translate(8.100276, 22.373844) rotate(-180.000000) translate(-8.100276, -22.373844) "></path>
                    <g id="Group-138" transform="translate(0.000000, 9.431100)">
                        <path d="M2.01100274,-7.10542736e-15 L14.1889979,-7.10542736e-15 C15.299644,-8.19762816e-15 16.2000006,0.900356596 16.2000006,2.01100274 C16.2000006,3.12164889 15.299644,4.02200548 14.1889979,4.02200548 L2.01100274,4.02200548 C0.900356596,4.02200548 1.36014925e-16,3.12164889 0,2.01100274 C-1.36014925e-16,0.900356596 0.900356596,-7.34549418e-15 2.01100274,-7.10542736e-15 Z" id="Rectangle"></path>
                        <path d="M2.01100274,4.02200548 L14.1889979,4.02200548 C15.299644,4.02200548 16.2000006,4.92236208 16.2000006,6.03300822 C16.2000006,7.14365437 15.299644,8.04401097 14.1889979,8.04401097 L2.01100274,8.04401097 C0.900356596,8.04401097 1.36014925e-16,7.14365437 0,6.03300822 C-1.36014925e-16,4.92236208 0.900356596,4.02200548 2.01100274,4.02200548 Z" id="Rectangle-Copy-7"></path>
                    </g>
                </g>
            </g>
        </g>
    </g>
</svg>